<mxfile host="app.diagrams.net" agent="Mozilla/5.0 (Windows NT 10.0; Win64; x64) AppleWebKit/537.36 (KHTML, like Gecko) Chrome/128.0.0.0 Safari/537.36 OPR/114.0.0.0" version="24.8.1">
  <diagram id="C5RBs43oDa-KdzZeNtuy" name="Page-1">
    <mxGraphModel dx="2615" dy="513" grid="1" gridSize="10" guides="1" tooltips="1" connect="1" arrows="1" fold="1" page="1" pageScale="1" pageWidth="827" pageHeight="1169" math="0" shadow="0">
      <root>
        <mxCell id="WIyWlLk6GJQsqaUBKTNV-0" />
        <mxCell id="WIyWlLk6GJQsqaUBKTNV-1" parent="WIyWlLk6GJQsqaUBKTNV-0" />
        <mxCell id="q_oxvsGT3ibb42apNzP6-59" value="HtmlWriter" style="shape=module;align=left;spacingLeft=20;align=center;verticalAlign=top;whiteSpace=wrap;html=1;" vertex="1" parent="WIyWlLk6GJQsqaUBKTNV-1">
          <mxGeometry x="-1060" y="794" width="430" height="286" as="geometry" />
        </mxCell>
        <mxCell id="q_oxvsGT3ibb42apNzP6-52" value="FileUtils" style="shape=module;align=left;spacingLeft=20;align=center;verticalAlign=top;whiteSpace=wrap;html=1;" vertex="1" parent="WIyWlLk6GJQsqaUBKTNV-1">
          <mxGeometry x="-1050" y="543" width="350" height="207" as="geometry" />
        </mxCell>
        <mxCell id="t_CTMTlM3WWsd4xlWa1g-42" value="DocHistoryCommands" style="shape=module;align=left;spacingLeft=20;align=center;verticalAlign=top;whiteSpace=wrap;html=1;" parent="WIyWlLk6GJQsqaUBKTNV-1" vertex="1">
          <mxGeometry x="790" y="1450" width="1110" height="597" as="geometry" />
        </mxCell>
        <mxCell id="tXO7d4i_3rFBIxNAxgOe-101" value="Menu" style="shape=module;align=left;spacingLeft=20;align=center;verticalAlign=top;whiteSpace=wrap;html=1;labelBackgroundColor=none;" parent="WIyWlLk6GJQsqaUBKTNV-1" vertex="1">
          <mxGeometry x="70" y="200" width="670" height="300" as="geometry" />
        </mxCell>
        <mxCell id="tXO7d4i_3rFBIxNAxgOe-55" value="ConcreteDocument" style="shape=module;align=left;spacingLeft=20;align=center;verticalAlign=top;whiteSpace=wrap;html=1;labelBackgroundColor=none;" parent="WIyWlLk6GJQsqaUBKTNV-1" vertex="1">
          <mxGeometry x="-380" y="1136" width="1140" height="524" as="geometry" />
        </mxCell>
        <mxCell id="mTHOiytMiAY_9Srzv-4_-0" value="App" style="shape=module;align=left;spacingLeft=20;align=center;verticalAlign=top;whiteSpace=wrap;html=1;labelBackgroundColor=none;" parent="WIyWlLk6GJQsqaUBKTNV-1" vertex="1">
          <mxGeometry x="40" y="20" width="280" height="140" as="geometry" />
        </mxCell>
        <mxCell id="mTHOiytMiAY_9Srzv-4_-1" value="main" style="swimlane;fontStyle=1;align=center;verticalAlign=top;childLayout=stackLayout;horizontal=1;startSize=26;horizontalStack=0;resizeParent=1;resizeParentMax=0;resizeLast=0;collapsible=1;marginBottom=0;whiteSpace=wrap;html=1;labelBackgroundColor=none;" parent="WIyWlLk6GJQsqaUBKTNV-1" vertex="1">
          <mxGeometry x="100" y="70" width="160" height="34" as="geometry" />
        </mxCell>
        <mxCell id="mTHOiytMiAY_9Srzv-4_-3" value="" style="line;strokeWidth=1;fillColor=none;align=left;verticalAlign=middle;spacingTop=-1;spacingLeft=3;spacingRight=3;rotatable=0;labelPosition=right;points=[];portConstraint=eastwest;labelBackgroundColor=none;" parent="mTHOiytMiAY_9Srzv-4_-1" vertex="1">
          <mxGeometry y="26" width="160" height="8" as="geometry" />
        </mxCell>
        <mxCell id="tXO7d4i_3rFBIxNAxgOe-17" value="Document" style="shape=module;align=left;spacingLeft=20;align=center;verticalAlign=top;whiteSpace=wrap;html=1;labelBackgroundColor=none;" parent="WIyWlLk6GJQsqaUBKTNV-1" vertex="1">
          <mxGeometry x="-380" y="620" width="1140" height="466" as="geometry" />
        </mxCell>
        <mxCell id="tXO7d4i_3rFBIxNAxgOe-0" value="&lt;i&gt;&amp;lt;&amp;lt;interface&amp;gt;&amp;gt; IDocument&lt;/i&gt;" style="swimlane;fontStyle=1;align=center;verticalAlign=top;childLayout=stackLayout;horizontal=1;startSize=26;horizontalStack=0;resizeParent=1;resizeParentMax=0;resizeLast=0;collapsible=1;marginBottom=0;whiteSpace=wrap;html=1;labelBackgroundColor=none;" parent="WIyWlLk6GJQsqaUBKTNV-1" vertex="1">
          <mxGeometry x="-330" y="656" width="400" height="372" as="geometry" />
        </mxCell>
        <mxCell id="tXO7d4i_3rFBIxNAxgOe-2" value="" style="line;strokeWidth=1;fillColor=none;align=left;verticalAlign=middle;spacingTop=-1;spacingLeft=3;spacingRight=3;rotatable=0;labelPosition=right;points=[];portConstraint=eastwest;labelBackgroundColor=none;" parent="tXO7d4i_3rFBIxNAxgOe-0" vertex="1">
          <mxGeometry y="26" width="400" height="8" as="geometry" />
        </mxCell>
        <mxCell id="tXO7d4i_3rFBIxNAxgOe-3" value="&lt;i&gt;+ InsertParagraph(text: string, pos: size_t = none): void&lt;/i&gt;" style="text;strokeColor=none;fillColor=none;align=left;verticalAlign=top;spacingLeft=4;spacingRight=4;overflow=hidden;rotatable=0;points=[[0,0.5],[1,0.5]];portConstraint=eastwest;whiteSpace=wrap;html=1;labelBackgroundColor=none;" parent="tXO7d4i_3rFBIxNAxgOe-0" vertex="1">
          <mxGeometry y="34" width="400" height="26" as="geometry" />
        </mxCell>
        <mxCell id="tXO7d4i_3rFBIxNAxgOe-4" value="&lt;i&gt;+ InsertImage(path: string, width: int, height: int, pos: size_t = none): void&lt;/i&gt;" style="text;strokeColor=none;fillColor=none;align=left;verticalAlign=top;spacingLeft=4;spacingRight=4;overflow=hidden;rotatable=0;points=[[0,0.5],[1,0.5]];portConstraint=eastwest;whiteSpace=wrap;html=1;labelBackgroundColor=none;" parent="tXO7d4i_3rFBIxNAxgOe-0" vertex="1">
          <mxGeometry y="60" width="400" height="26" as="geometry" />
        </mxCell>
        <mxCell id="t_CTMTlM3WWsd4xlWa1g-78" value="&lt;i&gt;+ GetTitle(): string&lt;/i&gt;" style="text;strokeColor=none;fillColor=none;align=left;verticalAlign=top;spacingLeft=4;spacingRight=4;overflow=hidden;rotatable=0;points=[[0,0.5],[1,0.5]];portConstraint=eastwest;whiteSpace=wrap;html=1;labelBackgroundColor=none;" parent="tXO7d4i_3rFBIxNAxgOe-0" vertex="1">
          <mxGeometry y="86" width="400" height="26" as="geometry" />
        </mxCell>
        <mxCell id="tXO7d4i_3rFBIxNAxgOe-13" value="&lt;i&gt;+ SetTitle(title: string): void&lt;/i&gt;" style="text;strokeColor=none;fillColor=none;align=left;verticalAlign=top;spacingLeft=4;spacingRight=4;overflow=hidden;rotatable=0;points=[[0,0.5],[1,0.5]];portConstraint=eastwest;whiteSpace=wrap;html=1;labelBackgroundColor=none;" parent="tXO7d4i_3rFBIxNAxgOe-0" vertex="1">
          <mxGeometry y="112" width="400" height="26" as="geometry" />
        </mxCell>
        <mxCell id="tXO7d4i_3rFBIxNAxgOe-5" value="&lt;i&gt;+ GetItemsCount(): size_t&lt;/i&gt;" style="text;strokeColor=none;fillColor=none;align=left;verticalAlign=top;spacingLeft=4;spacingRight=4;overflow=hidden;rotatable=0;points=[[0,0.5],[1,0.5]];portConstraint=eastwest;whiteSpace=wrap;html=1;labelBackgroundColor=none;" parent="tXO7d4i_3rFBIxNAxgOe-0" vertex="1">
          <mxGeometry y="138" width="400" height="26" as="geometry" />
        </mxCell>
        <mxCell id="tXO7d4i_3rFBIxNAxgOe-6" value="&lt;i&gt;+ GetItem(index: size_t): DocumentItem&lt;/i&gt;" style="text;strokeColor=none;fillColor=none;align=left;verticalAlign=top;spacingLeft=4;spacingRight=4;overflow=hidden;rotatable=0;points=[[0,0.5],[1,0.5]];portConstraint=eastwest;whiteSpace=wrap;html=1;labelBackgroundColor=none;" parent="tXO7d4i_3rFBIxNAxgOe-0" vertex="1">
          <mxGeometry y="164" width="400" height="26" as="geometry" />
        </mxCell>
        <mxCell id="tXO7d4i_3rFBIxNAxgOe-7" value="&lt;i&gt;+ GetItem(index: size_t): ConstDocumentItem&lt;/i&gt;" style="text;strokeColor=none;fillColor=none;align=left;verticalAlign=top;spacingLeft=4;spacingRight=4;overflow=hidden;rotatable=0;points=[[0,0.5],[1,0.5]];portConstraint=eastwest;whiteSpace=wrap;html=1;labelBackgroundColor=none;" parent="tXO7d4i_3rFBIxNAxgOe-0" vertex="1">
          <mxGeometry y="190" width="400" height="26" as="geometry" />
        </mxCell>
        <mxCell id="t_CTMTlM3WWsd4xlWa1g-79" value="&lt;i&gt;+ DeleteItem(index: size_t): void&lt;/i&gt;" style="text;strokeColor=none;fillColor=none;align=left;verticalAlign=top;spacingLeft=4;spacingRight=4;overflow=hidden;rotatable=0;points=[[0,0.5],[1,0.5]];portConstraint=eastwest;whiteSpace=wrap;html=1;labelBackgroundColor=none;" parent="tXO7d4i_3rFBIxNAxgOe-0" vertex="1">
          <mxGeometry y="216" width="400" height="26" as="geometry" />
        </mxCell>
        <mxCell id="tXO7d4i_3rFBIxNAxgOe-10" value="&lt;i&gt;+ CanUndo(): bool&lt;/i&gt;" style="text;strokeColor=none;fillColor=none;align=left;verticalAlign=top;spacingLeft=4;spacingRight=4;overflow=hidden;rotatable=0;points=[[0,0.5],[1,0.5]];portConstraint=eastwest;whiteSpace=wrap;html=1;labelBackgroundColor=none;" parent="tXO7d4i_3rFBIxNAxgOe-0" vertex="1">
          <mxGeometry y="242" width="400" height="26" as="geometry" />
        </mxCell>
        <mxCell id="tXO7d4i_3rFBIxNAxgOe-8" value="&lt;i&gt;+ Undo(): void&lt;/i&gt;" style="text;strokeColor=none;fillColor=none;align=left;verticalAlign=top;spacingLeft=4;spacingRight=4;overflow=hidden;rotatable=0;points=[[0,0.5],[1,0.5]];portConstraint=eastwest;whiteSpace=wrap;html=1;labelBackgroundColor=none;" parent="tXO7d4i_3rFBIxNAxgOe-0" vertex="1">
          <mxGeometry y="268" width="400" height="26" as="geometry" />
        </mxCell>
        <mxCell id="tXO7d4i_3rFBIxNAxgOe-11" value="&lt;i&gt;+ CanRedo(): bool&lt;/i&gt;" style="text;strokeColor=none;fillColor=none;align=left;verticalAlign=top;spacingLeft=4;spacingRight=4;overflow=hidden;rotatable=0;points=[[0,0.5],[1,0.5]];portConstraint=eastwest;whiteSpace=wrap;html=1;labelBackgroundColor=none;" parent="tXO7d4i_3rFBIxNAxgOe-0" vertex="1">
          <mxGeometry y="294" width="400" height="26" as="geometry" />
        </mxCell>
        <mxCell id="tXO7d4i_3rFBIxNAxgOe-9" value="&lt;i&gt;+ Redo(): void&lt;/i&gt;" style="text;strokeColor=none;fillColor=none;align=left;verticalAlign=top;spacingLeft=4;spacingRight=4;overflow=hidden;rotatable=0;points=[[0,0.5],[1,0.5]];portConstraint=eastwest;whiteSpace=wrap;html=1;labelBackgroundColor=none;" parent="tXO7d4i_3rFBIxNAxgOe-0" vertex="1">
          <mxGeometry y="320" width="400" height="26" as="geometry" />
        </mxCell>
        <mxCell id="tXO7d4i_3rFBIxNAxgOe-12" value="&lt;i&gt;+ Save(path: string): void&lt;/i&gt;" style="text;strokeColor=none;fillColor=none;align=left;verticalAlign=top;spacingLeft=4;spacingRight=4;overflow=hidden;rotatable=0;points=[[0,0.5],[1,0.5]];portConstraint=eastwest;whiteSpace=wrap;html=1;labelBackgroundColor=none;" parent="tXO7d4i_3rFBIxNAxgOe-0" vertex="1">
          <mxGeometry y="346" width="400" height="26" as="geometry" />
        </mxCell>
        <mxCell id="tXO7d4i_3rFBIxNAxgOe-20" value="DocumentItem" style="swimlane;fontStyle=1;align=center;verticalAlign=top;childLayout=stackLayout;horizontal=1;startSize=26;horizontalStack=0;resizeParent=1;resizeParentMax=0;resizeLast=0;collapsible=1;marginBottom=0;whiteSpace=wrap;html=1;labelBackgroundColor=none;" parent="WIyWlLk6GJQsqaUBKTNV-1" vertex="1">
          <mxGeometry x="470" y="656" width="260" height="138" as="geometry" />
        </mxCell>
        <mxCell id="tXO7d4i_3rFBIxNAxgOe-21" value="- shared_ptr&amp;lt;IParagraph&amp;gt;" style="text;strokeColor=none;fillColor=none;align=left;verticalAlign=top;spacingLeft=4;spacingRight=4;overflow=hidden;rotatable=0;points=[[0,0.5],[1,0.5]];portConstraint=eastwest;whiteSpace=wrap;html=1;labelBackgroundColor=none;" parent="tXO7d4i_3rFBIxNAxgOe-20" vertex="1">
          <mxGeometry y="26" width="260" height="26" as="geometry" />
        </mxCell>
        <mxCell id="tXO7d4i_3rFBIxNAxgOe-32" value="- shared_ptr&amp;lt;IImage&amp;gt;" style="text;strokeColor=none;fillColor=none;align=left;verticalAlign=top;spacingLeft=4;spacingRight=4;overflow=hidden;rotatable=0;points=[[0,0.5],[1,0.5]];portConstraint=eastwest;whiteSpace=wrap;html=1;labelBackgroundColor=none;" parent="tXO7d4i_3rFBIxNAxgOe-20" vertex="1">
          <mxGeometry y="52" width="260" height="26" as="geometry" />
        </mxCell>
        <mxCell id="tXO7d4i_3rFBIxNAxgOe-22" value="" style="line;strokeWidth=1;fillColor=none;align=left;verticalAlign=middle;spacingTop=-1;spacingLeft=3;spacingRight=3;rotatable=0;labelPosition=right;points=[];portConstraint=eastwest;labelBackgroundColor=none;" parent="tXO7d4i_3rFBIxNAxgOe-20" vertex="1">
          <mxGeometry y="78" width="260" height="8" as="geometry" />
        </mxCell>
        <mxCell id="tXO7d4i_3rFBIxNAxgOe-23" value="+ GetParagraph(): shared_ptr&amp;lt;IParagraph&amp;gt;" style="text;strokeColor=none;fillColor=none;align=left;verticalAlign=top;spacingLeft=4;spacingRight=4;overflow=hidden;rotatable=0;points=[[0,0.5],[1,0.5]];portConstraint=eastwest;whiteSpace=wrap;html=1;labelBackgroundColor=none;" parent="tXO7d4i_3rFBIxNAxgOe-20" vertex="1">
          <mxGeometry y="86" width="260" height="26" as="geometry" />
        </mxCell>
        <mxCell id="tXO7d4i_3rFBIxNAxgOe-40" value="+ GetImage(): shared_ptr&amp;lt;IImage&amp;gt;" style="text;strokeColor=none;fillColor=none;align=left;verticalAlign=top;spacingLeft=4;spacingRight=4;overflow=hidden;rotatable=0;points=[[0,0.5],[1,0.5]];portConstraint=eastwest;whiteSpace=wrap;html=1;labelBackgroundColor=none;" parent="tXO7d4i_3rFBIxNAxgOe-20" vertex="1">
          <mxGeometry y="112" width="260" height="26" as="geometry" />
        </mxCell>
        <mxCell id="tXO7d4i_3rFBIxNAxgOe-24" value="&lt;i&gt;&amp;lt;&amp;lt;interface&amp;gt;&amp;gt; IParagraph&lt;/i&gt;" style="swimlane;fontStyle=1;align=center;verticalAlign=top;childLayout=stackLayout;horizontal=1;startSize=26;horizontalStack=0;resizeParent=1;resizeParentMax=0;resizeLast=0;collapsible=1;marginBottom=0;whiteSpace=wrap;html=1;labelBackgroundColor=none;" parent="WIyWlLk6GJQsqaUBKTNV-1" vertex="1">
          <mxGeometry x="165" y="906" width="190" height="86" as="geometry" />
        </mxCell>
        <mxCell id="tXO7d4i_3rFBIxNAxgOe-26" value="" style="line;strokeWidth=1;fillColor=none;align=left;verticalAlign=middle;spacingTop=-1;spacingLeft=3;spacingRight=3;rotatable=0;labelPosition=right;points=[];portConstraint=eastwest;labelBackgroundColor=none;" parent="tXO7d4i_3rFBIxNAxgOe-24" vertex="1">
          <mxGeometry y="26" width="190" height="8" as="geometry" />
        </mxCell>
        <mxCell id="tXO7d4i_3rFBIxNAxgOe-33" value="&lt;i&gt;+ GetText(): string&lt;/i&gt;" style="text;strokeColor=none;fillColor=none;align=left;verticalAlign=top;spacingLeft=4;spacingRight=4;overflow=hidden;rotatable=0;points=[[0,0.5],[1,0.5]];portConstraint=eastwest;whiteSpace=wrap;html=1;labelBackgroundColor=none;" parent="tXO7d4i_3rFBIxNAxgOe-24" vertex="1">
          <mxGeometry y="34" width="190" height="26" as="geometry" />
        </mxCell>
        <mxCell id="tXO7d4i_3rFBIxNAxgOe-34" value="&lt;i&gt;+ SetText(text: string): void&lt;/i&gt;" style="text;strokeColor=none;fillColor=none;align=left;verticalAlign=top;spacingLeft=4;spacingRight=4;overflow=hidden;rotatable=0;points=[[0,0.5],[1,0.5]];portConstraint=eastwest;whiteSpace=wrap;html=1;labelBackgroundColor=none;" parent="tXO7d4i_3rFBIxNAxgOe-24" vertex="1">
          <mxGeometry y="60" width="190" height="26" as="geometry" />
        </mxCell>
        <mxCell id="tXO7d4i_3rFBIxNAxgOe-28" value="&lt;i&gt;&amp;lt;&amp;lt;interface&amp;gt;&amp;gt; IImage&lt;/i&gt;" style="swimlane;fontStyle=1;align=center;verticalAlign=top;childLayout=stackLayout;horizontal=1;startSize=26;horizontalStack=0;resizeParent=1;resizeParentMax=0;resizeLast=0;collapsible=1;marginBottom=0;whiteSpace=wrap;html=1;labelBackgroundColor=none;" parent="WIyWlLk6GJQsqaUBKTNV-1" vertex="1">
          <mxGeometry x="450" y="866" width="210" height="138" as="geometry" />
        </mxCell>
        <mxCell id="tXO7d4i_3rFBIxNAxgOe-30" value="" style="line;strokeWidth=1;fillColor=none;align=left;verticalAlign=middle;spacingTop=-1;spacingLeft=3;spacingRight=3;rotatable=0;labelPosition=right;points=[];portConstraint=eastwest;labelBackgroundColor=none;" parent="tXO7d4i_3rFBIxNAxgOe-28" vertex="1">
          <mxGeometry y="26" width="210" height="8" as="geometry" />
        </mxCell>
        <mxCell id="tXO7d4i_3rFBIxNAxgOe-35" value="&lt;i&gt;+ GetPath(): string&lt;/i&gt;" style="text;strokeColor=none;fillColor=none;align=left;verticalAlign=top;spacingLeft=4;spacingRight=4;overflow=hidden;rotatable=0;points=[[0,0.5],[1,0.5]];portConstraint=eastwest;whiteSpace=wrap;html=1;labelBackgroundColor=none;" parent="tXO7d4i_3rFBIxNAxgOe-28" vertex="1">
          <mxGeometry y="34" width="210" height="26" as="geometry" />
        </mxCell>
        <mxCell id="tXO7d4i_3rFBIxNAxgOe-36" value="&lt;i&gt;+ GetWidth(): int&lt;/i&gt;" style="text;strokeColor=none;fillColor=none;align=left;verticalAlign=top;spacingLeft=4;spacingRight=4;overflow=hidden;rotatable=0;points=[[0,0.5],[1,0.5]];portConstraint=eastwest;whiteSpace=wrap;html=1;labelBackgroundColor=none;" parent="tXO7d4i_3rFBIxNAxgOe-28" vertex="1">
          <mxGeometry y="60" width="210" height="26" as="geometry" />
        </mxCell>
        <mxCell id="tXO7d4i_3rFBIxNAxgOe-38" value="&lt;i&gt;+ GetHeight(): int&lt;/i&gt;" style="text;strokeColor=none;fillColor=none;align=left;verticalAlign=top;spacingLeft=4;spacingRight=4;overflow=hidden;rotatable=0;points=[[0,0.5],[1,0.5]];portConstraint=eastwest;whiteSpace=wrap;html=1;labelBackgroundColor=none;" parent="tXO7d4i_3rFBIxNAxgOe-28" vertex="1">
          <mxGeometry y="86" width="210" height="26" as="geometry" />
        </mxCell>
        <mxCell id="tXO7d4i_3rFBIxNAxgOe-39" value="&lt;i&gt;+ Resize(width: int, height: int): void&lt;/i&gt;" style="text;strokeColor=none;fillColor=none;align=left;verticalAlign=top;spacingLeft=4;spacingRight=4;overflow=hidden;rotatable=0;points=[[0,0.5],[1,0.5]];portConstraint=eastwest;whiteSpace=wrap;html=1;labelBackgroundColor=none;" parent="tXO7d4i_3rFBIxNAxgOe-28" vertex="1">
          <mxGeometry y="112" width="210" height="26" as="geometry" />
        </mxCell>
        <mxCell id="tXO7d4i_3rFBIxNAxgOe-41" value="ConstDocumentItem" style="swimlane;fontStyle=1;align=center;verticalAlign=top;childLayout=stackLayout;horizontal=1;startSize=26;horizontalStack=0;resizeParent=1;resizeParentMax=0;resizeLast=0;collapsible=1;marginBottom=0;whiteSpace=wrap;html=1;labelBackgroundColor=none;" parent="WIyWlLk6GJQsqaUBKTNV-1" vertex="1">
          <mxGeometry x="120" y="656" width="280" height="138" as="geometry" />
        </mxCell>
        <mxCell id="tXO7d4i_3rFBIxNAxgOe-42" value="- shared_ptr&amp;lt;const IParagraph&amp;gt;" style="text;strokeColor=none;fillColor=none;align=left;verticalAlign=top;spacingLeft=4;spacingRight=4;overflow=hidden;rotatable=0;points=[[0,0.5],[1,0.5]];portConstraint=eastwest;whiteSpace=wrap;html=1;labelBackgroundColor=none;" parent="tXO7d4i_3rFBIxNAxgOe-41" vertex="1">
          <mxGeometry y="26" width="280" height="26" as="geometry" />
        </mxCell>
        <mxCell id="tXO7d4i_3rFBIxNAxgOe-43" value="- shared_ptr&amp;lt;const IImage&amp;gt;" style="text;strokeColor=none;fillColor=none;align=left;verticalAlign=top;spacingLeft=4;spacingRight=4;overflow=hidden;rotatable=0;points=[[0,0.5],[1,0.5]];portConstraint=eastwest;whiteSpace=wrap;html=1;labelBackgroundColor=none;" parent="tXO7d4i_3rFBIxNAxgOe-41" vertex="1">
          <mxGeometry y="52" width="280" height="26" as="geometry" />
        </mxCell>
        <mxCell id="tXO7d4i_3rFBIxNAxgOe-44" value="" style="line;strokeWidth=1;fillColor=none;align=left;verticalAlign=middle;spacingTop=-1;spacingLeft=3;spacingRight=3;rotatable=0;labelPosition=right;points=[];portConstraint=eastwest;labelBackgroundColor=none;" parent="tXO7d4i_3rFBIxNAxgOe-41" vertex="1">
          <mxGeometry y="78" width="280" height="8" as="geometry" />
        </mxCell>
        <mxCell id="tXO7d4i_3rFBIxNAxgOe-45" value="+ GetParagraph(): shared_ptr&amp;lt;const IParagraph&amp;gt;" style="text;strokeColor=none;fillColor=none;align=left;verticalAlign=top;spacingLeft=4;spacingRight=4;overflow=hidden;rotatable=0;points=[[0,0.5],[1,0.5]];portConstraint=eastwest;whiteSpace=wrap;html=1;labelBackgroundColor=none;" parent="tXO7d4i_3rFBIxNAxgOe-41" vertex="1">
          <mxGeometry y="86" width="280" height="26" as="geometry" />
        </mxCell>
        <mxCell id="tXO7d4i_3rFBIxNAxgOe-46" value="+ GetImage(): shared_ptr&amp;lt;const IImage&amp;gt;" style="text;strokeColor=none;fillColor=none;align=left;verticalAlign=top;spacingLeft=4;spacingRight=4;overflow=hidden;rotatable=0;points=[[0,0.5],[1,0.5]];portConstraint=eastwest;whiteSpace=wrap;html=1;labelBackgroundColor=none;" parent="tXO7d4i_3rFBIxNAxgOe-41" vertex="1">
          <mxGeometry y="112" width="280" height="26" as="geometry" />
        </mxCell>
        <mxCell id="tXO7d4i_3rFBIxNAxgOe-47" value="Extends" style="endArrow=block;endSize=16;endFill=0;html=1;rounded=0;labelBackgroundColor=none;fontColor=default;" parent="WIyWlLk6GJQsqaUBKTNV-1" source="tXO7d4i_3rFBIxNAxgOe-41" target="tXO7d4i_3rFBIxNAxgOe-20" edge="1">
          <mxGeometry width="160" relative="1" as="geometry">
            <mxPoint x="360" y="806" as="sourcePoint" />
            <mxPoint x="520" y="806" as="targetPoint" />
          </mxGeometry>
        </mxCell>
        <mxCell id="tXO7d4i_3rFBIxNAxgOe-48" value="Use" style="endArrow=open;endSize=12;dashed=1;html=1;rounded=0;labelBackgroundColor=none;fontColor=default;" parent="WIyWlLk6GJQsqaUBKTNV-1" source="tXO7d4i_3rFBIxNAxgOe-0" target="tXO7d4i_3rFBIxNAxgOe-41" edge="1">
          <mxGeometry width="160" relative="1" as="geometry">
            <mxPoint x="280" y="876" as="sourcePoint" />
            <mxPoint x="440" y="876" as="targetPoint" />
          </mxGeometry>
        </mxCell>
        <mxCell id="tXO7d4i_3rFBIxNAxgOe-49" value="Use" style="endArrow=open;endSize=12;dashed=1;html=1;rounded=0;labelBackgroundColor=none;fontColor=default;" parent="WIyWlLk6GJQsqaUBKTNV-1" source="tXO7d4i_3rFBIxNAxgOe-0" target="tXO7d4i_3rFBIxNAxgOe-20" edge="1">
          <mxGeometry width="160" relative="1" as="geometry">
            <mxPoint x="80" y="778" as="sourcePoint" />
            <mxPoint x="130" y="766" as="targetPoint" />
            <Array as="points">
              <mxPoint x="110" y="646" />
              <mxPoint x="440" y="646" />
            </Array>
          </mxGeometry>
        </mxCell>
        <mxCell id="tXO7d4i_3rFBIxNAxgOe-51" value="" style="endArrow=diamondThin;endFill=0;endSize=24;html=1;rounded=0;labelBackgroundColor=none;fontColor=default;" parent="WIyWlLk6GJQsqaUBKTNV-1" source="tXO7d4i_3rFBIxNAxgOe-24" target="tXO7d4i_3rFBIxNAxgOe-41" edge="1">
          <mxGeometry width="160" relative="1" as="geometry">
            <mxPoint x="280" y="856" as="sourcePoint" />
            <mxPoint x="440" y="856" as="targetPoint" />
          </mxGeometry>
        </mxCell>
        <mxCell id="tXO7d4i_3rFBIxNAxgOe-52" value="" style="endArrow=diamondThin;endFill=0;endSize=24;html=1;rounded=0;labelBackgroundColor=none;fontColor=default;" parent="WIyWlLk6GJQsqaUBKTNV-1" source="tXO7d4i_3rFBIxNAxgOe-28" target="tXO7d4i_3rFBIxNAxgOe-41" edge="1">
          <mxGeometry width="160" relative="1" as="geometry">
            <mxPoint x="248" y="916" as="sourcePoint" />
            <mxPoint x="255" y="804" as="targetPoint" />
          </mxGeometry>
        </mxCell>
        <mxCell id="tXO7d4i_3rFBIxNAxgOe-53" value="" style="endArrow=diamondThin;endFill=0;endSize=24;html=1;rounded=0;labelBackgroundColor=none;fontColor=default;" parent="WIyWlLk6GJQsqaUBKTNV-1" source="tXO7d4i_3rFBIxNAxgOe-24" target="tXO7d4i_3rFBIxNAxgOe-20" edge="1">
          <mxGeometry width="160" relative="1" as="geometry">
            <mxPoint x="465" y="876" as="sourcePoint" />
            <mxPoint x="360" y="804" as="targetPoint" />
          </mxGeometry>
        </mxCell>
        <mxCell id="tXO7d4i_3rFBIxNAxgOe-54" value="" style="endArrow=diamondThin;endFill=0;endSize=24;html=1;rounded=0;labelBackgroundColor=none;fontColor=default;" parent="WIyWlLk6GJQsqaUBKTNV-1" source="tXO7d4i_3rFBIxNAxgOe-28" target="tXO7d4i_3rFBIxNAxgOe-20" edge="1">
          <mxGeometry width="160" relative="1" as="geometry">
            <mxPoint x="315" y="916" as="sourcePoint" />
            <mxPoint x="498" y="804" as="targetPoint" />
          </mxGeometry>
        </mxCell>
        <mxCell id="tXO7d4i_3rFBIxNAxgOe-56" value="ConcreteDocument" style="swimlane;fontStyle=1;align=center;verticalAlign=top;childLayout=stackLayout;horizontal=1;startSize=26;horizontalStack=0;resizeParent=1;resizeParentMax=0;resizeLast=0;collapsible=1;marginBottom=0;whiteSpace=wrap;html=1;labelBackgroundColor=none;" parent="WIyWlLk6GJQsqaUBKTNV-1" vertex="1">
          <mxGeometry x="-330" y="1209" width="400" height="424" as="geometry" />
        </mxCell>
        <mxCell id="tXO7d4i_3rFBIxNAxgOe-89" value="- m_title: string" style="text;strokeColor=none;fillColor=none;align=left;verticalAlign=top;spacingLeft=4;spacingRight=4;overflow=hidden;rotatable=0;points=[[0,0.5],[1,0.5]];portConstraint=eastwest;whiteSpace=wrap;html=1;labelBackgroundColor=none;" parent="tXO7d4i_3rFBIxNAxgOe-56" vertex="1">
          <mxGeometry y="26" width="400" height="26" as="geometry" />
        </mxCell>
        <mxCell id="tXO7d4i_3rFBIxNAxgOe-92" value="- m_items: vector&amp;lt;DocumentItem&amp;gt;" style="text;strokeColor=none;fillColor=none;align=left;verticalAlign=top;spacingLeft=4;spacingRight=4;overflow=hidden;rotatable=0;points=[[0,0.5],[1,0.5]];portConstraint=eastwest;whiteSpace=wrap;html=1;labelBackgroundColor=none;" parent="tXO7d4i_3rFBIxNAxgOe-56" vertex="1">
          <mxGeometry y="52" width="400" height="26" as="geometry" />
        </mxCell>
        <mxCell id="tXO7d4i_3rFBIxNAxgOe-95" value="- m_imagesToDelete: vector&amp;lt;string&amp;gt;" style="text;strokeColor=none;fillColor=none;align=left;verticalAlign=top;spacingLeft=4;spacingRight=4;overflow=hidden;rotatable=0;points=[[0,0.5],[1,0.5]];portConstraint=eastwest;whiteSpace=wrap;html=1;labelBackgroundColor=none;" parent="tXO7d4i_3rFBIxNAxgOe-56" vertex="1">
          <mxGeometry y="78" width="400" height="26" as="geometry" />
        </mxCell>
        <mxCell id="t_CTMTlM3WWsd4xlWa1g-60" value="- m_history: History" style="text;strokeColor=none;fillColor=none;align=left;verticalAlign=top;spacingLeft=4;spacingRight=4;overflow=hidden;rotatable=0;points=[[0,0.5],[1,0.5]];portConstraint=eastwest;whiteSpace=wrap;html=1;labelBackgroundColor=none;" parent="tXO7d4i_3rFBIxNAxgOe-56" vertex="1">
          <mxGeometry y="104" width="400" height="26" as="geometry" />
        </mxCell>
        <mxCell id="tXO7d4i_3rFBIxNAxgOe-57" value="" style="line;strokeWidth=1;fillColor=none;align=left;verticalAlign=middle;spacingTop=-1;spacingLeft=3;spacingRight=3;rotatable=0;labelPosition=right;points=[];portConstraint=eastwest;labelBackgroundColor=none;" parent="tXO7d4i_3rFBIxNAxgOe-56" vertex="1">
          <mxGeometry y="130" width="400" height="8" as="geometry" />
        </mxCell>
        <mxCell id="tXO7d4i_3rFBIxNAxgOe-58" value="+ InsertParagraph(text: string, pos: size_t = none): void" style="text;strokeColor=none;fillColor=none;align=left;verticalAlign=top;spacingLeft=4;spacingRight=4;overflow=hidden;rotatable=0;points=[[0,0.5],[1,0.5]];portConstraint=eastwest;whiteSpace=wrap;html=1;labelBackgroundColor=none;" parent="tXO7d4i_3rFBIxNAxgOe-56" vertex="1">
          <mxGeometry y="138" width="400" height="26" as="geometry" />
        </mxCell>
        <mxCell id="tXO7d4i_3rFBIxNAxgOe-59" value="+ InsertImage(path: string, width: int, height: int, pos: size_t = none): void" style="text;strokeColor=none;fillColor=none;align=left;verticalAlign=top;spacingLeft=4;spacingRight=4;overflow=hidden;rotatable=0;points=[[0,0.5],[1,0.5]];portConstraint=eastwest;whiteSpace=wrap;html=1;labelBackgroundColor=none;" parent="tXO7d4i_3rFBIxNAxgOe-56" vertex="1">
          <mxGeometry y="164" width="400" height="26" as="geometry" />
        </mxCell>
        <mxCell id="tXO7d4i_3rFBIxNAxgOe-60" value="+ SetTitle(title: string): void" style="text;strokeColor=none;fillColor=none;align=left;verticalAlign=top;spacingLeft=4;spacingRight=4;overflow=hidden;rotatable=0;points=[[0,0.5],[1,0.5]];portConstraint=eastwest;whiteSpace=wrap;html=1;labelBackgroundColor=none;" parent="tXO7d4i_3rFBIxNAxgOe-56" vertex="1">
          <mxGeometry y="190" width="400" height="26" as="geometry" />
        </mxCell>
        <mxCell id="tXO7d4i_3rFBIxNAxgOe-61" value="+ GetItemsCount(): size_t" style="text;strokeColor=none;fillColor=none;align=left;verticalAlign=top;spacingLeft=4;spacingRight=4;overflow=hidden;rotatable=0;points=[[0,0.5],[1,0.5]];portConstraint=eastwest;whiteSpace=wrap;html=1;labelBackgroundColor=none;" parent="tXO7d4i_3rFBIxNAxgOe-56" vertex="1">
          <mxGeometry y="216" width="400" height="26" as="geometry" />
        </mxCell>
        <mxCell id="tXO7d4i_3rFBIxNAxgOe-62" value="+ GetItem(index: size_t): DocumentItem" style="text;strokeColor=none;fillColor=none;align=left;verticalAlign=top;spacingLeft=4;spacingRight=4;overflow=hidden;rotatable=0;points=[[0,0.5],[1,0.5]];portConstraint=eastwest;whiteSpace=wrap;html=1;labelBackgroundColor=none;" parent="tXO7d4i_3rFBIxNAxgOe-56" vertex="1">
          <mxGeometry y="242" width="400" height="26" as="geometry" />
        </mxCell>
        <mxCell id="tXO7d4i_3rFBIxNAxgOe-63" value="+ GetItem(index: size_t): ConstDocumentItem" style="text;strokeColor=none;fillColor=none;align=left;verticalAlign=top;spacingLeft=4;spacingRight=4;overflow=hidden;rotatable=0;points=[[0,0.5],[1,0.5]];portConstraint=eastwest;whiteSpace=wrap;html=1;labelBackgroundColor=none;" parent="tXO7d4i_3rFBIxNAxgOe-56" vertex="1">
          <mxGeometry y="268" width="400" height="26" as="geometry" />
        </mxCell>
        <mxCell id="tXO7d4i_3rFBIxNAxgOe-64" value="+ CanUndo(): bool" style="text;strokeColor=none;fillColor=none;align=left;verticalAlign=top;spacingLeft=4;spacingRight=4;overflow=hidden;rotatable=0;points=[[0,0.5],[1,0.5]];portConstraint=eastwest;whiteSpace=wrap;html=1;labelBackgroundColor=none;" parent="tXO7d4i_3rFBIxNAxgOe-56" vertex="1">
          <mxGeometry y="294" width="400" height="26" as="geometry" />
        </mxCell>
        <mxCell id="tXO7d4i_3rFBIxNAxgOe-65" value="+ Undo(): void" style="text;strokeColor=none;fillColor=none;align=left;verticalAlign=top;spacingLeft=4;spacingRight=4;overflow=hidden;rotatable=0;points=[[0,0.5],[1,0.5]];portConstraint=eastwest;whiteSpace=wrap;html=1;labelBackgroundColor=none;" parent="tXO7d4i_3rFBIxNAxgOe-56" vertex="1">
          <mxGeometry y="320" width="400" height="26" as="geometry" />
        </mxCell>
        <mxCell id="tXO7d4i_3rFBIxNAxgOe-66" value="+ CanRedo(): bool" style="text;strokeColor=none;fillColor=none;align=left;verticalAlign=top;spacingLeft=4;spacingRight=4;overflow=hidden;rotatable=0;points=[[0,0.5],[1,0.5]];portConstraint=eastwest;whiteSpace=wrap;html=1;labelBackgroundColor=none;" parent="tXO7d4i_3rFBIxNAxgOe-56" vertex="1">
          <mxGeometry y="346" width="400" height="26" as="geometry" />
        </mxCell>
        <mxCell id="tXO7d4i_3rFBIxNAxgOe-67" value="+ Redo(): void" style="text;strokeColor=none;fillColor=none;align=left;verticalAlign=top;spacingLeft=4;spacingRight=4;overflow=hidden;rotatable=0;points=[[0,0.5],[1,0.5]];portConstraint=eastwest;whiteSpace=wrap;html=1;labelBackgroundColor=none;" parent="tXO7d4i_3rFBIxNAxgOe-56" vertex="1">
          <mxGeometry y="372" width="400" height="26" as="geometry" />
        </mxCell>
        <mxCell id="tXO7d4i_3rFBIxNAxgOe-68" value="+ Save(path: string): void" style="text;strokeColor=none;fillColor=none;align=left;verticalAlign=top;spacingLeft=4;spacingRight=4;overflow=hidden;rotatable=0;points=[[0,0.5],[1,0.5]];portConstraint=eastwest;whiteSpace=wrap;html=1;labelBackgroundColor=none;" parent="tXO7d4i_3rFBIxNAxgOe-56" vertex="1">
          <mxGeometry y="398" width="400" height="26" as="geometry" />
        </mxCell>
        <mxCell id="tXO7d4i_3rFBIxNAxgOe-69" value="Use" style="endArrow=open;endSize=12;dashed=1;html=1;rounded=0;labelBackgroundColor=none;fontColor=default;" parent="WIyWlLk6GJQsqaUBKTNV-1" source="tXO7d4i_3rFBIxNAxgOe-56" target="tXO7d4i_3rFBIxNAxgOe-41" edge="1">
          <mxGeometry width="160" relative="1" as="geometry">
            <mxPoint x="10" y="1006" as="sourcePoint" />
            <mxPoint x="170" y="1006" as="targetPoint" />
            <Array as="points">
              <mxPoint x="90" y="1126" />
              <mxPoint x="90" y="826" />
            </Array>
          </mxGeometry>
        </mxCell>
        <mxCell id="tXO7d4i_3rFBIxNAxgOe-72" value="Paragraph" style="swimlane;fontStyle=1;align=center;verticalAlign=top;childLayout=stackLayout;horizontal=1;startSize=26;horizontalStack=0;resizeParent=1;resizeParentMax=0;resizeLast=0;collapsible=1;marginBottom=0;whiteSpace=wrap;html=1;labelBackgroundColor=none;" parent="WIyWlLk6GJQsqaUBKTNV-1" vertex="1">
          <mxGeometry x="145" y="1236" width="230" height="150" as="geometry" />
        </mxCell>
        <mxCell id="tXO7d4i_3rFBIxNAxgOe-73" value="- m_text: string" style="text;strokeColor=none;fillColor=none;align=left;verticalAlign=top;spacingLeft=4;spacingRight=4;overflow=hidden;rotatable=0;points=[[0,0.5],[1,0.5]];portConstraint=eastwest;whiteSpace=wrap;html=1;labelBackgroundColor=none;" parent="tXO7d4i_3rFBIxNAxgOe-72" vertex="1">
          <mxGeometry y="26" width="230" height="26" as="geometry" />
        </mxCell>
        <mxCell id="tXO7d4i_3rFBIxNAxgOe-90" value="- m_setTextFn: function&amp;lt;void(text: string*, newText: string)&amp;gt;" style="text;strokeColor=none;fillColor=none;align=left;verticalAlign=top;spacingLeft=4;spacingRight=4;overflow=hidden;rotatable=0;points=[[0,0.5],[1,0.5]];portConstraint=eastwest;whiteSpace=wrap;html=1;labelBackgroundColor=none;" parent="tXO7d4i_3rFBIxNAxgOe-72" vertex="1">
          <mxGeometry y="52" width="230" height="38" as="geometry" />
        </mxCell>
        <mxCell id="tXO7d4i_3rFBIxNAxgOe-74" value="" style="line;strokeWidth=1;fillColor=none;align=left;verticalAlign=middle;spacingTop=-1;spacingLeft=3;spacingRight=3;rotatable=0;labelPosition=right;points=[];portConstraint=eastwest;labelBackgroundColor=none;" parent="tXO7d4i_3rFBIxNAxgOe-72" vertex="1">
          <mxGeometry y="90" width="230" height="8" as="geometry" />
        </mxCell>
        <mxCell id="tXO7d4i_3rFBIxNAxgOe-75" value="+ GetText(): string" style="text;strokeColor=none;fillColor=none;align=left;verticalAlign=top;spacingLeft=4;spacingRight=4;overflow=hidden;rotatable=0;points=[[0,0.5],[1,0.5]];portConstraint=eastwest;whiteSpace=wrap;html=1;labelBackgroundColor=none;" parent="tXO7d4i_3rFBIxNAxgOe-72" vertex="1">
          <mxGeometry y="98" width="230" height="26" as="geometry" />
        </mxCell>
        <mxCell id="tXO7d4i_3rFBIxNAxgOe-82" value="+ SetText(text: string): void" style="text;strokeColor=none;fillColor=none;align=left;verticalAlign=top;spacingLeft=4;spacingRight=4;overflow=hidden;rotatable=0;points=[[0,0.5],[1,0.5]];portConstraint=eastwest;whiteSpace=wrap;html=1;labelBackgroundColor=none;" parent="tXO7d4i_3rFBIxNAxgOe-72" vertex="1">
          <mxGeometry y="124" width="230" height="26" as="geometry" />
        </mxCell>
        <mxCell id="tXO7d4i_3rFBIxNAxgOe-77" value="Image" style="swimlane;fontStyle=1;align=center;verticalAlign=top;childLayout=stackLayout;horizontal=1;startSize=26;horizontalStack=0;resizeParent=1;resizeParentMax=0;resizeLast=0;collapsible=1;marginBottom=0;whiteSpace=wrap;html=1;labelBackgroundColor=none;" parent="WIyWlLk6GJQsqaUBKTNV-1" vertex="1">
          <mxGeometry x="415" y="1236" width="280" height="254" as="geometry" />
        </mxCell>
        <mxCell id="tXO7d4i_3rFBIxNAxgOe-78" value="- m_path: string" style="text;strokeColor=none;fillColor=none;align=left;verticalAlign=top;spacingLeft=4;spacingRight=4;overflow=hidden;rotatable=0;points=[[0,0.5],[1,0.5]];portConstraint=eastwest;whiteSpace=wrap;html=1;labelBackgroundColor=none;" parent="tXO7d4i_3rFBIxNAxgOe-77" vertex="1">
          <mxGeometry y="26" width="280" height="26" as="geometry" />
        </mxCell>
        <mxCell id="tXO7d4i_3rFBIxNAxgOe-83" value="- m_width: int" style="text;strokeColor=none;fillColor=none;align=left;verticalAlign=top;spacingLeft=4;spacingRight=4;overflow=hidden;rotatable=0;points=[[0,0.5],[1,0.5]];portConstraint=eastwest;whiteSpace=wrap;html=1;labelBackgroundColor=none;" parent="tXO7d4i_3rFBIxNAxgOe-77" vertex="1">
          <mxGeometry y="52" width="280" height="26" as="geometry" />
        </mxCell>
        <mxCell id="tXO7d4i_3rFBIxNAxgOe-84" value="- m_height: int" style="text;strokeColor=none;fillColor=none;align=left;verticalAlign=top;spacingLeft=4;spacingRight=4;overflow=hidden;rotatable=0;points=[[0,0.5],[1,0.5]];portConstraint=eastwest;whiteSpace=wrap;html=1;labelBackgroundColor=none;" parent="tXO7d4i_3rFBIxNAxgOe-77" vertex="1">
          <mxGeometry y="78" width="280" height="26" as="geometry" />
        </mxCell>
        <mxCell id="tXO7d4i_3rFBIxNAxgOe-91" value="- m_resizeFn: function&amp;lt;void(width: int*, height: int*, newWidth: int, newHeight: int)&amp;gt;" style="text;strokeColor=none;fillColor=none;align=left;verticalAlign=top;spacingLeft=4;spacingRight=4;overflow=hidden;rotatable=0;points=[[0,0.5],[1,0.5]];portConstraint=eastwest;whiteSpace=wrap;html=1;labelBackgroundColor=none;" parent="tXO7d4i_3rFBIxNAxgOe-77" vertex="1">
          <mxGeometry y="104" width="280" height="38" as="geometry" />
        </mxCell>
        <mxCell id="tXO7d4i_3rFBIxNAxgOe-79" value="" style="line;strokeWidth=1;fillColor=none;align=left;verticalAlign=middle;spacingTop=-1;spacingLeft=3;spacingRight=3;rotatable=0;labelPosition=right;points=[];portConstraint=eastwest;labelBackgroundColor=none;" parent="tXO7d4i_3rFBIxNAxgOe-77" vertex="1">
          <mxGeometry y="142" width="280" height="8" as="geometry" />
        </mxCell>
        <mxCell id="tXO7d4i_3rFBIxNAxgOe-85" value="+ GetPath(): string" style="text;strokeColor=none;fillColor=none;align=left;verticalAlign=top;spacingLeft=4;spacingRight=4;overflow=hidden;rotatable=0;points=[[0,0.5],[1,0.5]];portConstraint=eastwest;whiteSpace=wrap;html=1;labelBackgroundColor=none;" parent="tXO7d4i_3rFBIxNAxgOe-77" vertex="1">
          <mxGeometry y="150" width="280" height="26" as="geometry" />
        </mxCell>
        <mxCell id="tXO7d4i_3rFBIxNAxgOe-87" value="+ GetHeight(): int" style="text;strokeColor=none;fillColor=none;align=left;verticalAlign=top;spacingLeft=4;spacingRight=4;overflow=hidden;rotatable=0;points=[[0,0.5],[1,0.5]];portConstraint=eastwest;whiteSpace=wrap;html=1;labelBackgroundColor=none;" parent="tXO7d4i_3rFBIxNAxgOe-77" vertex="1">
          <mxGeometry y="176" width="280" height="26" as="geometry" />
        </mxCell>
        <mxCell id="tXO7d4i_3rFBIxNAxgOe-86" value="+ GetWidth(): int" style="text;strokeColor=none;fillColor=none;align=left;verticalAlign=top;spacingLeft=4;spacingRight=4;overflow=hidden;rotatable=0;points=[[0,0.5],[1,0.5]];portConstraint=eastwest;whiteSpace=wrap;html=1;labelBackgroundColor=none;" parent="tXO7d4i_3rFBIxNAxgOe-77" vertex="1">
          <mxGeometry y="202" width="280" height="26" as="geometry" />
        </mxCell>
        <mxCell id="tXO7d4i_3rFBIxNAxgOe-88" value="+ Resize(width: int, height: int): void" style="text;strokeColor=none;fillColor=none;align=left;verticalAlign=top;spacingLeft=4;spacingRight=4;overflow=hidden;rotatable=0;points=[[0,0.5],[1,0.5]];portConstraint=eastwest;whiteSpace=wrap;html=1;labelBackgroundColor=none;" parent="tXO7d4i_3rFBIxNAxgOe-77" vertex="1">
          <mxGeometry y="228" width="280" height="26" as="geometry" />
        </mxCell>
        <mxCell id="tXO7d4i_3rFBIxNAxgOe-94" value="" style="endArrow=diamondThin;endFill=0;endSize=24;html=1;rounded=0;labelBackgroundColor=none;fontColor=default;" parent="WIyWlLk6GJQsqaUBKTNV-1" source="tXO7d4i_3rFBIxNAxgOe-20" target="tXO7d4i_3rFBIxNAxgOe-56" edge="1">
          <mxGeometry width="160" relative="1" as="geometry">
            <mxPoint x="230" y="956" as="sourcePoint" />
            <mxPoint x="390" y="956" as="targetPoint" />
            <Array as="points">
              <mxPoint x="410" y="806" />
              <mxPoint x="410" y="1126" />
              <mxPoint x="100" y="1126" />
            </Array>
          </mxGeometry>
        </mxCell>
        <mxCell id="tXO7d4i_3rFBIxNAxgOe-97" value="Menu" style="swimlane;fontStyle=1;align=center;verticalAlign=top;childLayout=stackLayout;horizontal=1;startSize=26;horizontalStack=0;resizeParent=1;resizeParentMax=0;resizeLast=0;collapsible=1;marginBottom=0;whiteSpace=wrap;html=1;labelBackgroundColor=none;" parent="WIyWlLk6GJQsqaUBKTNV-1" vertex="1">
          <mxGeometry x="110" y="240" width="280" height="234" as="geometry" />
        </mxCell>
        <mxCell id="tXO7d4i_3rFBIxNAxgOe-98" value="- m_items: vector&amp;lt;Item&amp;gt;" style="text;strokeColor=none;fillColor=none;align=left;verticalAlign=top;spacingLeft=4;spacingRight=4;overflow=hidden;rotatable=0;points=[[0,0.5],[1,0.5]];portConstraint=eastwest;whiteSpace=wrap;html=1;labelBackgroundColor=none;" parent="tXO7d4i_3rFBIxNAxgOe-97" vertex="1">
          <mxGeometry y="26" width="280" height="26" as="geometry" />
        </mxCell>
        <mxCell id="q_oxvsGT3ibb42apNzP6-37" value="- m_isExit: bool" style="text;strokeColor=none;fillColor=none;align=left;verticalAlign=top;spacingLeft=4;spacingRight=4;overflow=hidden;rotatable=0;points=[[0,0.5],[1,0.5]];portConstraint=eastwest;whiteSpace=wrap;html=1;labelBackgroundColor=none;" vertex="1" parent="tXO7d4i_3rFBIxNAxgOe-97">
          <mxGeometry y="52" width="280" height="26" as="geometry" />
        </mxCell>
        <mxCell id="tXO7d4i_3rFBIxNAxgOe-99" value="" style="line;strokeWidth=1;fillColor=none;align=left;verticalAlign=middle;spacingTop=-1;spacingLeft=3;spacingRight=3;rotatable=0;labelPosition=right;points=[];portConstraint=eastwest;labelBackgroundColor=none;" parent="tXO7d4i_3rFBIxNAxgOe-97" vertex="1">
          <mxGeometry y="78" width="280" height="8" as="geometry" />
        </mxCell>
        <mxCell id="tXO7d4i_3rFBIxNAxgOe-100" value="+ AddItem(shortcut: string, description: string, command: function&amp;lt;void(in: istream)&amp;gt;): void" style="text;strokeColor=none;fillColor=none;align=left;verticalAlign=top;spacingLeft=4;spacingRight=4;overflow=hidden;rotatable=0;points=[[0,0.5],[1,0.5]];portConstraint=eastwest;whiteSpace=wrap;html=1;labelBackgroundColor=none;" parent="tXO7d4i_3rFBIxNAxgOe-97" vertex="1">
          <mxGeometry y="86" width="280" height="44" as="geometry" />
        </mxCell>
        <mxCell id="q_oxvsGT3ibb42apNzP6-38" value="+ Run(): void" style="text;strokeColor=none;fillColor=none;align=left;verticalAlign=top;spacingLeft=4;spacingRight=4;overflow=hidden;rotatable=0;points=[[0,0.5],[1,0.5]];portConstraint=eastwest;whiteSpace=wrap;html=1;labelBackgroundColor=none;" vertex="1" parent="tXO7d4i_3rFBIxNAxgOe-97">
          <mxGeometry y="130" width="280" height="26" as="geometry" />
        </mxCell>
        <mxCell id="q_oxvsGT3ibb42apNzP6-39" value="+ ShowInstruction(): void" style="text;strokeColor=none;fillColor=none;align=left;verticalAlign=top;spacingLeft=4;spacingRight=4;overflow=hidden;rotatable=0;points=[[0,0.5],[1,0.5]];portConstraint=eastwest;whiteSpace=wrap;html=1;labelBackgroundColor=none;" vertex="1" parent="tXO7d4i_3rFBIxNAxgOe-97">
          <mxGeometry y="156" width="280" height="26" as="geometry" />
        </mxCell>
        <mxCell id="q_oxvsGT3ibb42apNzP6-40" value="+ Exit(): void" style="text;strokeColor=none;fillColor=none;align=left;verticalAlign=top;spacingLeft=4;spacingRight=4;overflow=hidden;rotatable=0;points=[[0,0.5],[1,0.5]];portConstraint=eastwest;whiteSpace=wrap;html=1;labelBackgroundColor=none;" vertex="1" parent="tXO7d4i_3rFBIxNAxgOe-97">
          <mxGeometry y="182" width="280" height="26" as="geometry" />
        </mxCell>
        <mxCell id="q_oxvsGT3ibb42apNzP6-41" value="- ExecuteCommand(command: string): void" style="text;strokeColor=none;fillColor=none;align=left;verticalAlign=top;spacingLeft=4;spacingRight=4;overflow=hidden;rotatable=0;points=[[0,0.5],[1,0.5]];portConstraint=eastwest;whiteSpace=wrap;html=1;labelBackgroundColor=none;" vertex="1" parent="tXO7d4i_3rFBIxNAxgOe-97">
          <mxGeometry y="208" width="280" height="26" as="geometry" />
        </mxCell>
        <mxCell id="l1cM1aej3VJfIB5fveCM-64" value="" style="endArrow=block;dashed=1;endFill=0;endSize=12;html=1;rounded=0;labelBackgroundColor=none;fontColor=default;" parent="WIyWlLk6GJQsqaUBKTNV-1" source="tXO7d4i_3rFBIxNAxgOe-56" target="tXO7d4i_3rFBIxNAxgOe-0" edge="1">
          <mxGeometry width="160" relative="1" as="geometry">
            <mxPoint y="1100" as="sourcePoint" />
            <mxPoint x="160" y="1100" as="targetPoint" />
          </mxGeometry>
        </mxCell>
        <mxCell id="l1cM1aej3VJfIB5fveCM-65" value="" style="endArrow=block;dashed=1;endFill=0;endSize=12;html=1;rounded=0;labelBackgroundColor=none;fontColor=default;" parent="WIyWlLk6GJQsqaUBKTNV-1" source="tXO7d4i_3rFBIxNAxgOe-72" target="tXO7d4i_3rFBIxNAxgOe-24" edge="1">
          <mxGeometry width="160" relative="1" as="geometry">
            <mxPoint x="160" y="1120" as="sourcePoint" />
            <mxPoint x="320" y="1120" as="targetPoint" />
          </mxGeometry>
        </mxCell>
        <mxCell id="l1cM1aej3VJfIB5fveCM-66" value="" style="endArrow=block;dashed=1;endFill=0;endSize=12;html=1;rounded=0;labelBackgroundColor=none;fontColor=default;" parent="WIyWlLk6GJQsqaUBKTNV-1" source="tXO7d4i_3rFBIxNAxgOe-77" target="tXO7d4i_3rFBIxNAxgOe-28" edge="1">
          <mxGeometry width="160" relative="1" as="geometry">
            <mxPoint x="160" y="1120" as="sourcePoint" />
            <mxPoint x="320" y="1120" as="targetPoint" />
          </mxGeometry>
        </mxCell>
        <mxCell id="pXdeqg1yfymJb1hzx7rS-18" value="History" style="shape=module;align=left;spacingLeft=20;align=center;verticalAlign=top;whiteSpace=wrap;html=1;labelBackgroundColor=none;" parent="WIyWlLk6GJQsqaUBKTNV-1" vertex="1">
          <mxGeometry x="810" y="1086" width="480" height="264" as="geometry" />
        </mxCell>
        <mxCell id="pXdeqg1yfymJb1hzx7rS-20" value="History" style="swimlane;fontStyle=1;align=center;verticalAlign=top;childLayout=stackLayout;horizontal=1;startSize=26;horizontalStack=0;resizeParent=1;resizeParentMax=0;resizeLast=0;collapsible=1;marginBottom=0;whiteSpace=wrap;html=1;labelBackgroundColor=none;" parent="WIyWlLk6GJQsqaUBKTNV-1" vertex="1">
          <mxGeometry x="840" y="1130" width="440" height="190" as="geometry" />
        </mxCell>
        <mxCell id="pXdeqg1yfymJb1hzx7rS-21" value="- m_commands: vector&amp;lt;unique_ptr&amp;lt;AbstractDocumentCommand&amp;gt;&amp;gt;" style="text;strokeColor=none;fillColor=none;align=left;verticalAlign=top;spacingLeft=4;spacingRight=4;overflow=hidden;rotatable=0;points=[[0,0.5],[1,0.5]];portConstraint=eastwest;whiteSpace=wrap;html=1;labelBackgroundColor=none;" parent="pXdeqg1yfymJb1hzx7rS-20" vertex="1">
          <mxGeometry y="26" width="440" height="26" as="geometry" />
        </mxCell>
        <mxCell id="pXdeqg1yfymJb1hzx7rS-22" value="" style="line;strokeWidth=1;fillColor=none;align=left;verticalAlign=middle;spacingTop=-1;spacingLeft=3;spacingRight=3;rotatable=0;labelPosition=right;points=[];portConstraint=eastwest;labelBackgroundColor=none;" parent="pXdeqg1yfymJb1hzx7rS-20" vertex="1">
          <mxGeometry y="52" width="440" height="8" as="geometry" />
        </mxCell>
        <mxCell id="pXdeqg1yfymJb1hzx7rS-23" value="+ AddAndExecuteCommand(unique_ptr&amp;lt;AbstractDocumentCommand&amp;gt;): void" style="text;strokeColor=none;fillColor=none;align=left;verticalAlign=top;spacingLeft=4;spacingRight=4;overflow=hidden;rotatable=0;points=[[0,0.5],[1,0.5]];portConstraint=eastwest;whiteSpace=wrap;html=1;labelBackgroundColor=none;" parent="pXdeqg1yfymJb1hzx7rS-20" vertex="1">
          <mxGeometry y="60" width="440" height="26" as="geometry" />
        </mxCell>
        <mxCell id="t_CTMTlM3WWsd4xlWa1g-55" value="+ Undo(): void" style="text;strokeColor=none;fillColor=none;align=left;verticalAlign=top;spacingLeft=4;spacingRight=4;overflow=hidden;rotatable=0;points=[[0,0.5],[1,0.5]];portConstraint=eastwest;whiteSpace=wrap;html=1;labelBackgroundColor=none;" parent="pXdeqg1yfymJb1hzx7rS-20" vertex="1">
          <mxGeometry y="86" width="440" height="26" as="geometry" />
        </mxCell>
        <mxCell id="t_CTMTlM3WWsd4xlWa1g-56" value="+ Redo(): void" style="text;strokeColor=none;fillColor=none;align=left;verticalAlign=top;spacingLeft=4;spacingRight=4;overflow=hidden;rotatable=0;points=[[0,0.5],[1,0.5]];portConstraint=eastwest;whiteSpace=wrap;html=1;labelBackgroundColor=none;" parent="pXdeqg1yfymJb1hzx7rS-20" vertex="1">
          <mxGeometry y="112" width="440" height="26" as="geometry" />
        </mxCell>
        <mxCell id="t_CTMTlM3WWsd4xlWa1g-57" value="+ CanUndo(): bool" style="text;strokeColor=none;fillColor=none;align=left;verticalAlign=top;spacingLeft=4;spacingRight=4;overflow=hidden;rotatable=0;points=[[0,0.5],[1,0.5]];portConstraint=eastwest;whiteSpace=wrap;html=1;labelBackgroundColor=none;" parent="pXdeqg1yfymJb1hzx7rS-20" vertex="1">
          <mxGeometry y="138" width="440" height="26" as="geometry" />
        </mxCell>
        <mxCell id="t_CTMTlM3WWsd4xlWa1g-58" value="+ CanRedo(): bool" style="text;strokeColor=none;fillColor=none;align=left;verticalAlign=top;spacingLeft=4;spacingRight=4;overflow=hidden;rotatable=0;points=[[0,0.5],[1,0.5]];portConstraint=eastwest;whiteSpace=wrap;html=1;labelBackgroundColor=none;" parent="pXdeqg1yfymJb1hzx7rS-20" vertex="1">
          <mxGeometry y="164" width="440" height="26" as="geometry" />
        </mxCell>
        <mxCell id="t_CTMTlM3WWsd4xlWa1g-0" value="&lt;span style=&quot;text-align: left;&quot;&gt;InsertParagraphCommand&lt;/span&gt;" style="swimlane;fontStyle=1;align=center;verticalAlign=top;childLayout=stackLayout;horizontal=1;startSize=26;horizontalStack=0;resizeParent=1;resizeParentMax=0;resizeLast=0;collapsible=1;marginBottom=0;whiteSpace=wrap;html=1;labelBackgroundColor=none;" parent="WIyWlLk6GJQsqaUBKTNV-1" vertex="1">
          <mxGeometry x="1150" y="1512" width="210" height="200" as="geometry" />
        </mxCell>
        <mxCell id="t_CTMTlM3WWsd4xlWa1g-1" value="- m_items: vector&amp;lt;DocumentItem&amp;gt;" style="text;strokeColor=none;fillColor=none;align=left;verticalAlign=top;spacingLeft=4;spacingRight=4;overflow=hidden;rotatable=0;points=[[0,0.5],[1,0.5]];portConstraint=eastwest;whiteSpace=wrap;html=1;labelBackgroundColor=none;" parent="t_CTMTlM3WWsd4xlWa1g-0" vertex="1">
          <mxGeometry y="26" width="210" height="26" as="geometry" />
        </mxCell>
        <mxCell id="t_CTMTlM3WWsd4xlWa1g-2" value="- m_pos: size_t" style="text;strokeColor=none;fillColor=none;align=left;verticalAlign=top;spacingLeft=4;spacingRight=4;overflow=hidden;rotatable=0;points=[[0,0.5],[1,0.5]];portConstraint=eastwest;whiteSpace=wrap;html=1;labelBackgroundColor=none;" parent="t_CTMTlM3WWsd4xlWa1g-0" vertex="1">
          <mxGeometry y="52" width="210" height="26" as="geometry" />
        </mxCell>
        <mxCell id="t_CTMTlM3WWsd4xlWa1g-3" value="- m_text: string" style="text;strokeColor=none;fillColor=none;align=left;verticalAlign=top;spacingLeft=4;spacingRight=4;overflow=hidden;rotatable=0;points=[[0,0.5],[1,0.5]];portConstraint=eastwest;whiteSpace=wrap;html=1;labelBackgroundColor=none;" parent="t_CTMTlM3WWsd4xlWa1g-0" vertex="1">
          <mxGeometry y="78" width="210" height="26" as="geometry" />
        </mxCell>
        <mxCell id="q_oxvsGT3ibb42apNzP6-62" value="- m_replaceTextFn: function&amp;lt;void(string, string)&amp;gt;" style="text;strokeColor=none;fillColor=none;align=left;verticalAlign=top;spacingLeft=4;spacingRight=4;overflow=hidden;rotatable=0;points=[[0,0.5],[1,0.5]];portConstraint=eastwest;whiteSpace=wrap;html=1;labelBackgroundColor=none;" vertex="1" parent="t_CTMTlM3WWsd4xlWa1g-0">
          <mxGeometry y="104" width="210" height="36" as="geometry" />
        </mxCell>
        <mxCell id="t_CTMTlM3WWsd4xlWa1g-4" value="" style="line;strokeWidth=1;fillColor=none;align=left;verticalAlign=middle;spacingTop=-1;spacingLeft=3;spacingRight=3;rotatable=0;labelPosition=right;points=[];portConstraint=eastwest;labelBackgroundColor=none;" parent="t_CTMTlM3WWsd4xlWa1g-0" vertex="1">
          <mxGeometry y="140" width="210" height="8" as="geometry" />
        </mxCell>
        <mxCell id="t_CTMTlM3WWsd4xlWa1g-5" value="# ExecuteImp(): void" style="text;strokeColor=none;fillColor=none;align=left;verticalAlign=top;spacingLeft=4;spacingRight=4;overflow=hidden;rotatable=0;points=[[0,0.5],[1,0.5]];portConstraint=eastwest;whiteSpace=wrap;html=1;labelBackgroundColor=none;" parent="t_CTMTlM3WWsd4xlWa1g-0" vertex="1">
          <mxGeometry y="148" width="210" height="26" as="geometry" />
        </mxCell>
        <mxCell id="t_CTMTlM3WWsd4xlWa1g-6" value="# UnexecuteImp(): void" style="text;strokeColor=none;fillColor=none;align=left;verticalAlign=top;spacingLeft=4;spacingRight=4;overflow=hidden;rotatable=0;points=[[0,0.5],[1,0.5]];portConstraint=eastwest;whiteSpace=wrap;html=1;labelBackgroundColor=none;" parent="t_CTMTlM3WWsd4xlWa1g-0" vertex="1">
          <mxGeometry y="174" width="210" height="26" as="geometry" />
        </mxCell>
        <mxCell id="t_CTMTlM3WWsd4xlWa1g-7" value="&lt;span style=&quot;text-align: left;&quot;&gt;InsertImageCommand&lt;/span&gt;" style="swimlane;fontStyle=1;align=center;verticalAlign=top;childLayout=stackLayout;horizontal=1;startSize=26;horizontalStack=0;resizeParent=1;resizeParentMax=0;resizeLast=0;collapsible=1;marginBottom=0;whiteSpace=wrap;html=1;labelBackgroundColor=none;" parent="WIyWlLk6GJQsqaUBKTNV-1" vertex="1">
          <mxGeometry x="1410" y="1460" width="200" height="252" as="geometry" />
        </mxCell>
        <mxCell id="t_CTMTlM3WWsd4xlWa1g-8" value="- m_items: vector&amp;lt;DocumentItem&amp;gt;" style="text;strokeColor=none;fillColor=none;align=left;verticalAlign=top;spacingLeft=4;spacingRight=4;overflow=hidden;rotatable=0;points=[[0,0.5],[1,0.5]];portConstraint=eastwest;whiteSpace=wrap;html=1;labelBackgroundColor=none;" parent="t_CTMTlM3WWsd4xlWa1g-7" vertex="1">
          <mxGeometry y="26" width="200" height="26" as="geometry" />
        </mxCell>
        <mxCell id="q_oxvsGT3ibb42apNzP6-63" value="- m_pos: size_t" style="text;strokeColor=none;fillColor=none;align=left;verticalAlign=top;spacingLeft=4;spacingRight=4;overflow=hidden;rotatable=0;points=[[0,0.5],[1,0.5]];portConstraint=eastwest;whiteSpace=wrap;html=1;labelBackgroundColor=none;" vertex="1" parent="t_CTMTlM3WWsd4xlWa1g-7">
          <mxGeometry y="52" width="200" height="26" as="geometry" />
        </mxCell>
        <mxCell id="t_CTMTlM3WWsd4xlWa1g-9" value="- m_path: string" style="text;strokeColor=none;fillColor=none;align=left;verticalAlign=top;spacingLeft=4;spacingRight=4;overflow=hidden;rotatable=0;points=[[0,0.5],[1,0.5]];portConstraint=eastwest;whiteSpace=wrap;html=1;labelBackgroundColor=none;" parent="t_CTMTlM3WWsd4xlWa1g-7" vertex="1">
          <mxGeometry y="78" width="200" height="26" as="geometry" />
        </mxCell>
        <mxCell id="t_CTMTlM3WWsd4xlWa1g-10" value="- m_width: int" style="text;strokeColor=none;fillColor=none;align=left;verticalAlign=top;spacingLeft=4;spacingRight=4;overflow=hidden;rotatable=0;points=[[0,0.5],[1,0.5]];portConstraint=eastwest;whiteSpace=wrap;html=1;labelBackgroundColor=none;" parent="t_CTMTlM3WWsd4xlWa1g-7" vertex="1">
          <mxGeometry y="104" width="200" height="26" as="geometry" />
        </mxCell>
        <mxCell id="t_CTMTlM3WWsd4xlWa1g-11" value="- m_height: int" style="text;strokeColor=none;fillColor=none;align=left;verticalAlign=top;spacingLeft=4;spacingRight=4;overflow=hidden;rotatable=0;points=[[0,0.5],[1,0.5]];portConstraint=eastwest;whiteSpace=wrap;html=1;labelBackgroundColor=none;" parent="t_CTMTlM3WWsd4xlWa1g-7" vertex="1">
          <mxGeometry y="130" width="200" height="26" as="geometry" />
        </mxCell>
        <mxCell id="q_oxvsGT3ibb42apNzP6-64" value="- m_replaceTextFn: function&amp;lt;void(int, int, int, int)&amp;gt;" style="text;strokeColor=none;fillColor=none;align=left;verticalAlign=top;spacingLeft=4;spacingRight=4;overflow=hidden;rotatable=0;points=[[0,0.5],[1,0.5]];portConstraint=eastwest;whiteSpace=wrap;html=1;labelBackgroundColor=none;" vertex="1" parent="t_CTMTlM3WWsd4xlWa1g-7">
          <mxGeometry y="156" width="200" height="36" as="geometry" />
        </mxCell>
        <mxCell id="t_CTMTlM3WWsd4xlWa1g-12" value="" style="line;strokeWidth=1;fillColor=none;align=left;verticalAlign=middle;spacingTop=-1;spacingLeft=3;spacingRight=3;rotatable=0;labelPosition=right;points=[];portConstraint=eastwest;labelBackgroundColor=none;" parent="t_CTMTlM3WWsd4xlWa1g-7" vertex="1">
          <mxGeometry y="192" width="200" height="8" as="geometry" />
        </mxCell>
        <mxCell id="t_CTMTlM3WWsd4xlWa1g-13" value="# ExecuteImp(): void" style="text;strokeColor=none;fillColor=none;align=left;verticalAlign=top;spacingLeft=4;spacingRight=4;overflow=hidden;rotatable=0;points=[[0,0.5],[1,0.5]];portConstraint=eastwest;whiteSpace=wrap;html=1;labelBackgroundColor=none;" parent="t_CTMTlM3WWsd4xlWa1g-7" vertex="1">
          <mxGeometry y="200" width="200" height="26" as="geometry" />
        </mxCell>
        <mxCell id="t_CTMTlM3WWsd4xlWa1g-14" value="# UnexecuteImp(): void" style="text;strokeColor=none;fillColor=none;align=left;verticalAlign=top;spacingLeft=4;spacingRight=4;overflow=hidden;rotatable=0;points=[[0,0.5],[1,0.5]];portConstraint=eastwest;whiteSpace=wrap;html=1;labelBackgroundColor=none;" parent="t_CTMTlM3WWsd4xlWa1g-7" vertex="1">
          <mxGeometry y="226" width="200" height="26" as="geometry" />
        </mxCell>
        <mxCell id="t_CTMTlM3WWsd4xlWa1g-15" value="&lt;span style=&quot;text-align: left;&quot;&gt;SetTitleCommand&lt;/span&gt;" style="swimlane;fontStyle=1;align=center;verticalAlign=top;childLayout=stackLayout;horizontal=1;startSize=26;horizontalStack=0;resizeParent=1;resizeParentMax=0;resizeLast=0;collapsible=1;marginBottom=0;whiteSpace=wrap;html=1;labelBackgroundColor=none;" parent="WIyWlLk6GJQsqaUBKTNV-1" vertex="1">
          <mxGeometry x="1650" y="1522" width="200" height="164" as="geometry" />
        </mxCell>
        <mxCell id="q_oxvsGT3ibb42apNzP6-66" value="- m_titlePtr: string*" style="text;strokeColor=none;fillColor=none;align=left;verticalAlign=top;spacingLeft=4;spacingRight=4;overflow=hidden;rotatable=0;points=[[0,0.5],[1,0.5]];portConstraint=eastwest;whiteSpace=wrap;html=1;labelBackgroundColor=none;" vertex="1" parent="t_CTMTlM3WWsd4xlWa1g-15">
          <mxGeometry y="26" width="200" height="26" as="geometry" />
        </mxCell>
        <mxCell id="t_CTMTlM3WWsd4xlWa1g-17" value="- m_text: string" style="text;strokeColor=none;fillColor=none;align=left;verticalAlign=top;spacingLeft=4;spacingRight=4;overflow=hidden;rotatable=0;points=[[0,0.5],[1,0.5]];portConstraint=eastwest;whiteSpace=wrap;html=1;labelBackgroundColor=none;" parent="t_CTMTlM3WWsd4xlWa1g-15" vertex="1">
          <mxGeometry y="52" width="200" height="26" as="geometry" />
        </mxCell>
        <mxCell id="q_oxvsGT3ibb42apNzP6-65" value="- m_oldText: string" style="text;strokeColor=none;fillColor=none;align=left;verticalAlign=top;spacingLeft=4;spacingRight=4;overflow=hidden;rotatable=0;points=[[0,0.5],[1,0.5]];portConstraint=eastwest;whiteSpace=wrap;html=1;labelBackgroundColor=none;" vertex="1" parent="t_CTMTlM3WWsd4xlWa1g-15">
          <mxGeometry y="78" width="200" height="26" as="geometry" />
        </mxCell>
        <mxCell id="t_CTMTlM3WWsd4xlWa1g-18" value="" style="line;strokeWidth=1;fillColor=none;align=left;verticalAlign=middle;spacingTop=-1;spacingLeft=3;spacingRight=3;rotatable=0;labelPosition=right;points=[];portConstraint=eastwest;labelBackgroundColor=none;" parent="t_CTMTlM3WWsd4xlWa1g-15" vertex="1">
          <mxGeometry y="104" width="200" height="8" as="geometry" />
        </mxCell>
        <mxCell id="t_CTMTlM3WWsd4xlWa1g-19" value="# ExecuteImp(): void" style="text;strokeColor=none;fillColor=none;align=left;verticalAlign=top;spacingLeft=4;spacingRight=4;overflow=hidden;rotatable=0;points=[[0,0.5],[1,0.5]];portConstraint=eastwest;whiteSpace=wrap;html=1;labelBackgroundColor=none;" parent="t_CTMTlM3WWsd4xlWa1g-15" vertex="1">
          <mxGeometry y="112" width="200" height="26" as="geometry" />
        </mxCell>
        <mxCell id="t_CTMTlM3WWsd4xlWa1g-20" value="# UnexecuteImp(): void" style="text;strokeColor=none;fillColor=none;align=left;verticalAlign=top;spacingLeft=4;spacingRight=4;overflow=hidden;rotatable=0;points=[[0,0.5],[1,0.5]];portConstraint=eastwest;whiteSpace=wrap;html=1;labelBackgroundColor=none;" parent="t_CTMTlM3WWsd4xlWa1g-15" vertex="1">
          <mxGeometry y="138" width="200" height="26" as="geometry" />
        </mxCell>
        <mxCell id="t_CTMTlM3WWsd4xlWa1g-21" value="&lt;span style=&quot;text-align: left;&quot;&gt;ReplaceParagraphCommand&lt;/span&gt;" style="swimlane;fontStyle=1;align=center;verticalAlign=top;childLayout=stackLayout;horizontal=1;startSize=26;horizontalStack=0;resizeParent=1;resizeParentMax=0;resizeLast=0;collapsible=1;marginBottom=0;whiteSpace=wrap;html=1;labelBackgroundColor=none;" parent="WIyWlLk6GJQsqaUBKTNV-1" vertex="1">
          <mxGeometry x="1160" y="1800" width="200" height="164" as="geometry" />
        </mxCell>
        <mxCell id="q_oxvsGT3ibb42apNzP6-67" value="- m_item: string*" style="text;strokeColor=none;fillColor=none;align=left;verticalAlign=top;spacingLeft=4;spacingRight=4;overflow=hidden;rotatable=0;points=[[0,0.5],[1,0.5]];portConstraint=eastwest;whiteSpace=wrap;html=1;labelBackgroundColor=none;" vertex="1" parent="t_CTMTlM3WWsd4xlWa1g-21">
          <mxGeometry y="26" width="200" height="26" as="geometry" />
        </mxCell>
        <mxCell id="q_oxvsGT3ibb42apNzP6-69" value="- m_oldText: string" style="text;strokeColor=none;fillColor=none;align=left;verticalAlign=top;spacingLeft=4;spacingRight=4;overflow=hidden;rotatable=0;points=[[0,0.5],[1,0.5]];portConstraint=eastwest;whiteSpace=wrap;html=1;labelBackgroundColor=none;" vertex="1" parent="t_CTMTlM3WWsd4xlWa1g-21">
          <mxGeometry y="52" width="200" height="26" as="geometry" />
        </mxCell>
        <mxCell id="q_oxvsGT3ibb42apNzP6-68" value="- m_text: string" style="text;strokeColor=none;fillColor=none;align=left;verticalAlign=top;spacingLeft=4;spacingRight=4;overflow=hidden;rotatable=0;points=[[0,0.5],[1,0.5]];portConstraint=eastwest;whiteSpace=wrap;html=1;labelBackgroundColor=none;" vertex="1" parent="t_CTMTlM3WWsd4xlWa1g-21">
          <mxGeometry y="78" width="200" height="26" as="geometry" />
        </mxCell>
        <mxCell id="t_CTMTlM3WWsd4xlWa1g-25" value="" style="line;strokeWidth=1;fillColor=none;align=left;verticalAlign=middle;spacingTop=-1;spacingLeft=3;spacingRight=3;rotatable=0;labelPosition=right;points=[];portConstraint=eastwest;labelBackgroundColor=none;" parent="t_CTMTlM3WWsd4xlWa1g-21" vertex="1">
          <mxGeometry y="104" width="200" height="8" as="geometry" />
        </mxCell>
        <mxCell id="t_CTMTlM3WWsd4xlWa1g-26" value="# ExecuteImp(): void" style="text;strokeColor=none;fillColor=none;align=left;verticalAlign=top;spacingLeft=4;spacingRight=4;overflow=hidden;rotatable=0;points=[[0,0.5],[1,0.5]];portConstraint=eastwest;whiteSpace=wrap;html=1;labelBackgroundColor=none;" parent="t_CTMTlM3WWsd4xlWa1g-21" vertex="1">
          <mxGeometry y="112" width="200" height="26" as="geometry" />
        </mxCell>
        <mxCell id="t_CTMTlM3WWsd4xlWa1g-27" value="# UnexecuteImp(): void" style="text;strokeColor=none;fillColor=none;align=left;verticalAlign=top;spacingLeft=4;spacingRight=4;overflow=hidden;rotatable=0;points=[[0,0.5],[1,0.5]];portConstraint=eastwest;whiteSpace=wrap;html=1;labelBackgroundColor=none;" parent="t_CTMTlM3WWsd4xlWa1g-21" vertex="1">
          <mxGeometry y="138" width="200" height="26" as="geometry" />
        </mxCell>
        <mxCell id="t_CTMTlM3WWsd4xlWa1g-28" value="&lt;span style=&quot;text-align: left;&quot;&gt;ResizeImageCommand&lt;/span&gt;" style="swimlane;fontStyle=1;align=center;verticalAlign=top;childLayout=stackLayout;horizontal=1;startSize=26;horizontalStack=0;resizeParent=1;resizeParentMax=0;resizeLast=0;collapsible=1;marginBottom=0;whiteSpace=wrap;html=1;labelBackgroundColor=none;" parent="WIyWlLk6GJQsqaUBKTNV-1" vertex="1">
          <mxGeometry x="1410" y="1800" width="200" height="242" as="geometry" />
        </mxCell>
        <mxCell id="t_CTMTlM3WWsd4xlWa1g-29" value="- m_w: int*" style="text;strokeColor=none;fillColor=none;align=left;verticalAlign=top;spacingLeft=4;spacingRight=4;overflow=hidden;rotatable=0;points=[[0,0.5],[1,0.5]];portConstraint=eastwest;whiteSpace=wrap;html=1;labelBackgroundColor=none;" parent="t_CTMTlM3WWsd4xlWa1g-28" vertex="1">
          <mxGeometry y="26" width="200" height="26" as="geometry" />
        </mxCell>
        <mxCell id="q_oxvsGT3ibb42apNzP6-70" value="- m_h: int*" style="text;strokeColor=none;fillColor=none;align=left;verticalAlign=top;spacingLeft=4;spacingRight=4;overflow=hidden;rotatable=0;points=[[0,0.5],[1,0.5]];portConstraint=eastwest;whiteSpace=wrap;html=1;labelBackgroundColor=none;" vertex="1" parent="t_CTMTlM3WWsd4xlWa1g-28">
          <mxGeometry y="52" width="200" height="26" as="geometry" />
        </mxCell>
        <mxCell id="q_oxvsGT3ibb42apNzP6-71" value="- m_newW: int" style="text;strokeColor=none;fillColor=none;align=left;verticalAlign=top;spacingLeft=4;spacingRight=4;overflow=hidden;rotatable=0;points=[[0,0.5],[1,0.5]];portConstraint=eastwest;whiteSpace=wrap;html=1;labelBackgroundColor=none;" vertex="1" parent="t_CTMTlM3WWsd4xlWa1g-28">
          <mxGeometry y="78" width="200" height="26" as="geometry" />
        </mxCell>
        <mxCell id="q_oxvsGT3ibb42apNzP6-72" value="- m_newH: int" style="text;strokeColor=none;fillColor=none;align=left;verticalAlign=top;spacingLeft=4;spacingRight=4;overflow=hidden;rotatable=0;points=[[0,0.5],[1,0.5]];portConstraint=eastwest;whiteSpace=wrap;html=1;labelBackgroundColor=none;" vertex="1" parent="t_CTMTlM3WWsd4xlWa1g-28">
          <mxGeometry y="104" width="200" height="26" as="geometry" />
        </mxCell>
        <mxCell id="q_oxvsGT3ibb42apNzP6-74" value="- m_oldH: int" style="text;strokeColor=none;fillColor=none;align=left;verticalAlign=top;spacingLeft=4;spacingRight=4;overflow=hidden;rotatable=0;points=[[0,0.5],[1,0.5]];portConstraint=eastwest;whiteSpace=wrap;html=1;labelBackgroundColor=none;" vertex="1" parent="t_CTMTlM3WWsd4xlWa1g-28">
          <mxGeometry y="130" width="200" height="26" as="geometry" />
        </mxCell>
        <mxCell id="q_oxvsGT3ibb42apNzP6-73" value="- m_oldW: int" style="text;strokeColor=none;fillColor=none;align=left;verticalAlign=top;spacingLeft=4;spacingRight=4;overflow=hidden;rotatable=0;points=[[0,0.5],[1,0.5]];portConstraint=eastwest;whiteSpace=wrap;html=1;labelBackgroundColor=none;" vertex="1" parent="t_CTMTlM3WWsd4xlWa1g-28">
          <mxGeometry y="156" width="200" height="26" as="geometry" />
        </mxCell>
        <mxCell id="t_CTMTlM3WWsd4xlWa1g-33" value="" style="line;strokeWidth=1;fillColor=none;align=left;verticalAlign=middle;spacingTop=-1;spacingLeft=3;spacingRight=3;rotatable=0;labelPosition=right;points=[];portConstraint=eastwest;labelBackgroundColor=none;" parent="t_CTMTlM3WWsd4xlWa1g-28" vertex="1">
          <mxGeometry y="182" width="200" height="8" as="geometry" />
        </mxCell>
        <mxCell id="t_CTMTlM3WWsd4xlWa1g-34" value="# ExecuteImp(): void" style="text;strokeColor=none;fillColor=none;align=left;verticalAlign=top;spacingLeft=4;spacingRight=4;overflow=hidden;rotatable=0;points=[[0,0.5],[1,0.5]];portConstraint=eastwest;whiteSpace=wrap;html=1;labelBackgroundColor=none;" parent="t_CTMTlM3WWsd4xlWa1g-28" vertex="1">
          <mxGeometry y="190" width="200" height="26" as="geometry" />
        </mxCell>
        <mxCell id="t_CTMTlM3WWsd4xlWa1g-35" value="# UnexecuteImp(): void" style="text;strokeColor=none;fillColor=none;align=left;verticalAlign=top;spacingLeft=4;spacingRight=4;overflow=hidden;rotatable=0;points=[[0,0.5],[1,0.5]];portConstraint=eastwest;whiteSpace=wrap;html=1;labelBackgroundColor=none;" parent="t_CTMTlM3WWsd4xlWa1g-28" vertex="1">
          <mxGeometry y="216" width="200" height="26" as="geometry" />
        </mxCell>
        <mxCell id="t_CTMTlM3WWsd4xlWa1g-36" value="&lt;span style=&quot;text-align: left;&quot;&gt;DeleteItemCommand&lt;/span&gt;" style="swimlane;fontStyle=1;align=center;verticalAlign=top;childLayout=stackLayout;horizontal=1;startSize=26;horizontalStack=0;resizeParent=1;resizeParentMax=0;resizeLast=0;collapsible=1;marginBottom=0;whiteSpace=wrap;html=1;labelBackgroundColor=none;" parent="WIyWlLk6GJQsqaUBKTNV-1" vertex="1">
          <mxGeometry x="1650" y="1800" width="200" height="164" as="geometry" />
        </mxCell>
        <mxCell id="t_CTMTlM3WWsd4xlWa1g-37" value="- m_items: vector&amp;lt;DocumentItem&amp;gt;" style="text;strokeColor=none;fillColor=none;align=left;verticalAlign=top;spacingLeft=4;spacingRight=4;overflow=hidden;rotatable=0;points=[[0,0.5],[1,0.5]];portConstraint=eastwest;whiteSpace=wrap;html=1;labelBackgroundColor=none;" parent="t_CTMTlM3WWsd4xlWa1g-36" vertex="1">
          <mxGeometry y="26" width="200" height="26" as="geometry" />
        </mxCell>
        <mxCell id="t_CTMTlM3WWsd4xlWa1g-38" value="- m_pos: size_t" style="text;strokeColor=none;fillColor=none;align=left;verticalAlign=top;spacingLeft=4;spacingRight=4;overflow=hidden;rotatable=0;points=[[0,0.5],[1,0.5]];portConstraint=eastwest;whiteSpace=wrap;html=1;labelBackgroundColor=none;" parent="t_CTMTlM3WWsd4xlWa1g-36" vertex="1">
          <mxGeometry y="52" width="200" height="26" as="geometry" />
        </mxCell>
        <mxCell id="q_oxvsGT3ibb42apNzP6-75" value="- m_itemCopy: DocumentItem" style="text;strokeColor=none;fillColor=none;align=left;verticalAlign=top;spacingLeft=4;spacingRight=4;overflow=hidden;rotatable=0;points=[[0,0.5],[1,0.5]];portConstraint=eastwest;whiteSpace=wrap;html=1;labelBackgroundColor=none;" vertex="1" parent="t_CTMTlM3WWsd4xlWa1g-36">
          <mxGeometry y="78" width="200" height="26" as="geometry" />
        </mxCell>
        <mxCell id="t_CTMTlM3WWsd4xlWa1g-39" value="" style="line;strokeWidth=1;fillColor=none;align=left;verticalAlign=middle;spacingTop=-1;spacingLeft=3;spacingRight=3;rotatable=0;labelPosition=right;points=[];portConstraint=eastwest;labelBackgroundColor=none;" parent="t_CTMTlM3WWsd4xlWa1g-36" vertex="1">
          <mxGeometry y="104" width="200" height="8" as="geometry" />
        </mxCell>
        <mxCell id="t_CTMTlM3WWsd4xlWa1g-40" value="# ExecuteImp(): void" style="text;strokeColor=none;fillColor=none;align=left;verticalAlign=top;spacingLeft=4;spacingRight=4;overflow=hidden;rotatable=0;points=[[0,0.5],[1,0.5]];portConstraint=eastwest;whiteSpace=wrap;html=1;labelBackgroundColor=none;" parent="t_CTMTlM3WWsd4xlWa1g-36" vertex="1">
          <mxGeometry y="112" width="200" height="26" as="geometry" />
        </mxCell>
        <mxCell id="t_CTMTlM3WWsd4xlWa1g-41" value="# UnexecuteImp(): void" style="text;strokeColor=none;fillColor=none;align=left;verticalAlign=top;spacingLeft=4;spacingRight=4;overflow=hidden;rotatable=0;points=[[0,0.5],[1,0.5]];portConstraint=eastwest;whiteSpace=wrap;html=1;labelBackgroundColor=none;" parent="t_CTMTlM3WWsd4xlWa1g-36" vertex="1">
          <mxGeometry y="138" width="200" height="26" as="geometry" />
        </mxCell>
        <mxCell id="t_CTMTlM3WWsd4xlWa1g-44" value="&lt;span style=&quot;text-align: left;&quot;&gt;AbstractDocumentCommand&lt;/span&gt;" style="swimlane;fontStyle=1;align=center;verticalAlign=top;childLayout=stackLayout;horizontal=1;startSize=26;horizontalStack=0;resizeParent=1;resizeParentMax=0;resizeLast=0;collapsible=1;marginBottom=0;whiteSpace=wrap;html=1;labelBackgroundColor=none;" parent="WIyWlLk6GJQsqaUBKTNV-1" vertex="1">
          <mxGeometry x="860" y="1620" width="200" height="190" as="geometry" />
        </mxCell>
        <mxCell id="t_CTMTlM3WWsd4xlWa1g-51" value="- isExecuted: bool" style="text;strokeColor=none;fillColor=none;align=left;verticalAlign=top;spacingLeft=4;spacingRight=4;overflow=hidden;rotatable=0;points=[[0,0.5],[1,0.5]];portConstraint=eastwest;whiteSpace=wrap;html=1;labelBackgroundColor=none;" parent="t_CTMTlM3WWsd4xlWa1g-44" vertex="1">
          <mxGeometry y="26" width="200" height="26" as="geometry" />
        </mxCell>
        <mxCell id="t_CTMTlM3WWsd4xlWa1g-48" value="" style="line;strokeWidth=1;fillColor=none;align=left;verticalAlign=middle;spacingTop=-1;spacingLeft=3;spacingRight=3;rotatable=0;labelPosition=right;points=[];portConstraint=eastwest;labelBackgroundColor=none;" parent="t_CTMTlM3WWsd4xlWa1g-44" vertex="1">
          <mxGeometry y="52" width="200" height="8" as="geometry" />
        </mxCell>
        <mxCell id="t_CTMTlM3WWsd4xlWa1g-49" value="+ ExecuteImp(): void" style="text;strokeColor=none;fillColor=none;align=left;verticalAlign=top;spacingLeft=4;spacingRight=4;overflow=hidden;rotatable=0;points=[[0,0.5],[1,0.5]];portConstraint=eastwest;whiteSpace=wrap;html=1;labelBackgroundColor=none;" parent="t_CTMTlM3WWsd4xlWa1g-44" vertex="1">
          <mxGeometry y="60" width="200" height="26" as="geometry" />
        </mxCell>
        <mxCell id="t_CTMTlM3WWsd4xlWa1g-50" value="+ Unexecute(): void" style="text;strokeColor=none;fillColor=none;align=left;verticalAlign=top;spacingLeft=4;spacingRight=4;overflow=hidden;rotatable=0;points=[[0,0.5],[1,0.5]];portConstraint=eastwest;whiteSpace=wrap;html=1;labelBackgroundColor=none;" parent="t_CTMTlM3WWsd4xlWa1g-44" vertex="1">
          <mxGeometry y="86" width="200" height="26" as="geometry" />
        </mxCell>
        <mxCell id="t_CTMTlM3WWsd4xlWa1g-53" value="&lt;i&gt;# ExecuteImp(): void&lt;/i&gt;" style="text;strokeColor=none;fillColor=none;align=left;verticalAlign=top;spacingLeft=4;spacingRight=4;overflow=hidden;rotatable=0;points=[[0,0.5],[1,0.5]];portConstraint=eastwest;whiteSpace=wrap;html=1;labelBackgroundColor=none;" parent="t_CTMTlM3WWsd4xlWa1g-44" vertex="1">
          <mxGeometry y="112" width="200" height="26" as="geometry" />
        </mxCell>
        <mxCell id="t_CTMTlM3WWsd4xlWa1g-54" value="&lt;i&gt;# UnexecuteImp(): void&lt;/i&gt;" style="text;strokeColor=none;fillColor=none;align=left;verticalAlign=top;spacingLeft=4;spacingRight=4;overflow=hidden;rotatable=0;points=[[0,0.5],[1,0.5]];portConstraint=eastwest;whiteSpace=wrap;html=1;labelBackgroundColor=none;" parent="t_CTMTlM3WWsd4xlWa1g-44" vertex="1">
          <mxGeometry y="138" width="200" height="26" as="geometry" />
        </mxCell>
        <mxCell id="t_CTMTlM3WWsd4xlWa1g-52" value="+ IsExecuted(): bool" style="text;strokeColor=none;fillColor=none;align=left;verticalAlign=top;spacingLeft=4;spacingRight=4;overflow=hidden;rotatable=0;points=[[0,0.5],[1,0.5]];portConstraint=eastwest;whiteSpace=wrap;html=1;labelBackgroundColor=none;" parent="t_CTMTlM3WWsd4xlWa1g-44" vertex="1">
          <mxGeometry y="164" width="200" height="26" as="geometry" />
        </mxCell>
        <mxCell id="t_CTMTlM3WWsd4xlWa1g-59" value="" style="endArrow=diamondThin;endFill=1;endSize=24;html=1;rounded=0;" parent="WIyWlLk6GJQsqaUBKTNV-1" source="t_CTMTlM3WWsd4xlWa1g-44" target="pXdeqg1yfymJb1hzx7rS-20" edge="1">
          <mxGeometry width="160" relative="1" as="geometry">
            <mxPoint x="840" y="1400" as="sourcePoint" />
            <mxPoint x="1000" y="1400" as="targetPoint" />
          </mxGeometry>
        </mxCell>
        <mxCell id="t_CTMTlM3WWsd4xlWa1g-61" value="" style="endArrow=diamondThin;endFill=1;endSize=24;html=1;rounded=0;" parent="WIyWlLk6GJQsqaUBKTNV-1" source="pXdeqg1yfymJb1hzx7rS-20" target="tXO7d4i_3rFBIxNAxgOe-56" edge="1">
          <mxGeometry width="160" relative="1" as="geometry">
            <mxPoint x="-30" y="1380" as="sourcePoint" />
            <mxPoint x="130" y="1380" as="targetPoint" />
            <Array as="points">
              <mxPoint x="120" y="1220" />
            </Array>
          </mxGeometry>
        </mxCell>
        <mxCell id="t_CTMTlM3WWsd4xlWa1g-63" value="Extends" style="endArrow=block;endSize=16;endFill=0;html=1;rounded=0;" parent="WIyWlLk6GJQsqaUBKTNV-1" source="t_CTMTlM3WWsd4xlWa1g-0" target="t_CTMTlM3WWsd4xlWa1g-44" edge="1">
          <mxGeometry width="160" relative="1" as="geometry">
            <mxPoint x="1260" y="1750" as="sourcePoint" />
            <mxPoint x="1420" y="1750" as="targetPoint" />
          </mxGeometry>
        </mxCell>
        <mxCell id="t_CTMTlM3WWsd4xlWa1g-72" value="Extends" style="endArrow=block;endSize=16;endFill=0;html=1;rounded=0;" parent="WIyWlLk6GJQsqaUBKTNV-1" source="t_CTMTlM3WWsd4xlWa1g-21" target="t_CTMTlM3WWsd4xlWa1g-44" edge="1">
          <mxGeometry width="160" relative="1" as="geometry">
            <mxPoint x="1160" y="1652" as="sourcePoint" />
            <mxPoint x="1070" y="1687" as="targetPoint" />
          </mxGeometry>
        </mxCell>
        <mxCell id="t_CTMTlM3WWsd4xlWa1g-73" value="Extends" style="endArrow=block;endSize=16;endFill=0;html=1;rounded=0;" parent="WIyWlLk6GJQsqaUBKTNV-1" source="t_CTMTlM3WWsd4xlWa1g-28" target="t_CTMTlM3WWsd4xlWa1g-44" edge="1">
          <mxGeometry width="160" relative="1" as="geometry">
            <mxPoint x="1170" y="1836" as="sourcePoint" />
            <mxPoint x="1070" y="1781" as="targetPoint" />
            <Array as="points">
              <mxPoint x="1510" y="1790" />
              <mxPoint x="1160" y="1790" />
            </Array>
          </mxGeometry>
        </mxCell>
        <mxCell id="t_CTMTlM3WWsd4xlWa1g-74" value="Extends" style="endArrow=block;endSize=16;endFill=0;html=1;rounded=0;" parent="WIyWlLk6GJQsqaUBKTNV-1" source="t_CTMTlM3WWsd4xlWa1g-36" target="t_CTMTlM3WWsd4xlWa1g-44" edge="1">
          <mxGeometry width="160" relative="1" as="geometry">
            <mxPoint x="1510" y="1787" as="sourcePoint" />
            <mxPoint x="1060" y="1740" as="targetPoint" />
            <Array as="points">
              <mxPoint x="1750" y="1777" />
              <mxPoint x="1160" y="1777" />
            </Array>
          </mxGeometry>
        </mxCell>
        <mxCell id="t_CTMTlM3WWsd4xlWa1g-75" value="Extends" style="endArrow=block;endSize=16;endFill=0;html=1;rounded=0;" parent="WIyWlLk6GJQsqaUBKTNV-1" source="t_CTMTlM3WWsd4xlWa1g-7" target="t_CTMTlM3WWsd4xlWa1g-44" edge="1">
          <mxGeometry width="160" relative="1" as="geometry">
            <mxPoint x="1750" y="1766" as="sourcePoint" />
            <mxPoint x="1060" y="1712" as="targetPoint" />
            <Array as="points">
              <mxPoint x="1510" y="1730" />
              <mxPoint x="1160" y="1730" />
            </Array>
          </mxGeometry>
        </mxCell>
        <mxCell id="t_CTMTlM3WWsd4xlWa1g-76" value="Extends" style="endArrow=block;endSize=16;endFill=0;html=1;rounded=0;" parent="WIyWlLk6GJQsqaUBKTNV-1" source="t_CTMTlM3WWsd4xlWa1g-15" target="t_CTMTlM3WWsd4xlWa1g-44" edge="1">
          <mxGeometry width="160" relative="1" as="geometry">
            <mxPoint x="1520" y="1722" as="sourcePoint" />
            <mxPoint x="1070" y="1733" as="targetPoint" />
            <Array as="points">
              <mxPoint x="1750" y="1740" />
              <mxPoint x="1160" y="1740" />
            </Array>
          </mxGeometry>
        </mxCell>
        <mxCell id="q_oxvsGT3ibb42apNzP6-1" value="&lt;span style=&quot;font-weight: 400; text-align: left;&quot;&gt;CommandsToMenuCreator&lt;/span&gt;" style="swimlane;fontStyle=1;align=center;verticalAlign=top;childLayout=stackLayout;horizontal=1;startSize=26;horizontalStack=0;resizeParent=1;resizeParentMax=0;resizeLast=0;collapsible=1;marginBottom=0;whiteSpace=wrap;html=1;labelBackgroundColor=none;" vertex="1" parent="WIyWlLk6GJQsqaUBKTNV-1">
          <mxGeometry x="-590" y="140" width="430" height="372" as="geometry" />
        </mxCell>
        <mxCell id="q_oxvsGT3ibb42apNzP6-3" value="" style="line;strokeWidth=1;fillColor=none;align=left;verticalAlign=middle;spacingTop=-1;spacingLeft=3;spacingRight=3;rotatable=0;labelPosition=right;points=[];portConstraint=eastwest;labelBackgroundColor=none;" vertex="1" parent="q_oxvsGT3ibb42apNzP6-1">
          <mxGeometry y="26" width="430" height="8" as="geometry" />
        </mxCell>
        <mxCell id="q_oxvsGT3ibb42apNzP6-4" value="+&amp;nbsp;AddCommands(menu: Menu, document: IDocument): void" style="text;strokeColor=none;fillColor=none;align=left;verticalAlign=top;spacingLeft=4;spacingRight=4;overflow=hidden;rotatable=0;points=[[0,0.5],[1,0.5]];portConstraint=eastwest;whiteSpace=wrap;html=1;labelBackgroundColor=none;" vertex="1" parent="q_oxvsGT3ibb42apNzP6-1">
          <mxGeometry y="34" width="430" height="26" as="geometry" />
        </mxCell>
        <mxCell id="q_oxvsGT3ibb42apNzP6-6" value="- AddInsertParagraphCommand(menu: Menu, document: IDocument): void" style="text;strokeColor=none;fillColor=none;align=left;verticalAlign=top;spacingLeft=4;spacingRight=4;overflow=hidden;rotatable=0;points=[[0,0.5],[1,0.5]];portConstraint=eastwest;whiteSpace=wrap;html=1;labelBackgroundColor=none;" vertex="1" parent="q_oxvsGT3ibb42apNzP6-1">
          <mxGeometry y="60" width="430" height="26" as="geometry" />
        </mxCell>
        <mxCell id="q_oxvsGT3ibb42apNzP6-8" value="- AddInsertImageCommand(menu: Menu, document: IDocument): void" style="text;strokeColor=none;fillColor=none;align=left;verticalAlign=top;spacingLeft=4;spacingRight=4;overflow=hidden;rotatable=0;points=[[0,0.5],[1,0.5]];portConstraint=eastwest;whiteSpace=wrap;html=1;labelBackgroundColor=none;" vertex="1" parent="q_oxvsGT3ibb42apNzP6-1">
          <mxGeometry y="86" width="430" height="26" as="geometry" />
        </mxCell>
        <mxCell id="q_oxvsGT3ibb42apNzP6-9" value="- AddSetTitleCommand(menu: Menu, document: IDocument): void" style="text;strokeColor=none;fillColor=none;align=left;verticalAlign=top;spacingLeft=4;spacingRight=4;overflow=hidden;rotatable=0;points=[[0,0.5],[1,0.5]];portConstraint=eastwest;whiteSpace=wrap;html=1;labelBackgroundColor=none;" vertex="1" parent="q_oxvsGT3ibb42apNzP6-1">
          <mxGeometry y="112" width="430" height="26" as="geometry" />
        </mxCell>
        <mxCell id="q_oxvsGT3ibb42apNzP6-10" value="- AddListCommand(menu: Menu, document: IDocument): void" style="text;strokeColor=none;fillColor=none;align=left;verticalAlign=top;spacingLeft=4;spacingRight=4;overflow=hidden;rotatable=0;points=[[0,0.5],[1,0.5]];portConstraint=eastwest;whiteSpace=wrap;html=1;labelBackgroundColor=none;" vertex="1" parent="q_oxvsGT3ibb42apNzP6-1">
          <mxGeometry y="138" width="430" height="26" as="geometry" />
        </mxCell>
        <mxCell id="q_oxvsGT3ibb42apNzP6-11" value="- AddReplaceParagraphCommand(menu: Menu, document: IDocument): void" style="text;strokeColor=none;fillColor=none;align=left;verticalAlign=top;spacingLeft=4;spacingRight=4;overflow=hidden;rotatable=0;points=[[0,0.5],[1,0.5]];portConstraint=eastwest;whiteSpace=wrap;html=1;labelBackgroundColor=none;" vertex="1" parent="q_oxvsGT3ibb42apNzP6-1">
          <mxGeometry y="164" width="430" height="26" as="geometry" />
        </mxCell>
        <mxCell id="q_oxvsGT3ibb42apNzP6-12" value="- AddResizeImageCommand(menu: Menu, document: IDocument): void" style="text;strokeColor=none;fillColor=none;align=left;verticalAlign=top;spacingLeft=4;spacingRight=4;overflow=hidden;rotatable=0;points=[[0,0.5],[1,0.5]];portConstraint=eastwest;whiteSpace=wrap;html=1;labelBackgroundColor=none;" vertex="1" parent="q_oxvsGT3ibb42apNzP6-1">
          <mxGeometry y="190" width="430" height="26" as="geometry" />
        </mxCell>
        <mxCell id="q_oxvsGT3ibb42apNzP6-13" value="- AddDeleteItemCommand(menu: Menu, document: IDocument): void" style="text;strokeColor=none;fillColor=none;align=left;verticalAlign=top;spacingLeft=4;spacingRight=4;overflow=hidden;rotatable=0;points=[[0,0.5],[1,0.5]];portConstraint=eastwest;whiteSpace=wrap;html=1;labelBackgroundColor=none;" vertex="1" parent="q_oxvsGT3ibb42apNzP6-1">
          <mxGeometry y="216" width="430" height="26" as="geometry" />
        </mxCell>
        <mxCell id="q_oxvsGT3ibb42apNzP6-24" value="- AddUndoCommand(menu: Menu, document: IDocument): void" style="text;strokeColor=none;fillColor=none;align=left;verticalAlign=top;spacingLeft=4;spacingRight=4;overflow=hidden;rotatable=0;points=[[0,0.5],[1,0.5]];portConstraint=eastwest;whiteSpace=wrap;html=1;labelBackgroundColor=none;" vertex="1" parent="q_oxvsGT3ibb42apNzP6-1">
          <mxGeometry y="242" width="430" height="26" as="geometry" />
        </mxCell>
        <mxCell id="q_oxvsGT3ibb42apNzP6-25" value="- AddRedoCommand(menu: Menu, document: IDocument): void" style="text;strokeColor=none;fillColor=none;align=left;verticalAlign=top;spacingLeft=4;spacingRight=4;overflow=hidden;rotatable=0;points=[[0,0.5],[1,0.5]];portConstraint=eastwest;whiteSpace=wrap;html=1;labelBackgroundColor=none;" vertex="1" parent="q_oxvsGT3ibb42apNzP6-1">
          <mxGeometry y="268" width="430" height="26" as="geometry" />
        </mxCell>
        <mxCell id="q_oxvsGT3ibb42apNzP6-26" value="- AddSaveCommand(menu: Menu, document: IDocument): void" style="text;strokeColor=none;fillColor=none;align=left;verticalAlign=top;spacingLeft=4;spacingRight=4;overflow=hidden;rotatable=0;points=[[0,0.5],[1,0.5]];portConstraint=eastwest;whiteSpace=wrap;html=1;labelBackgroundColor=none;" vertex="1" parent="q_oxvsGT3ibb42apNzP6-1">
          <mxGeometry y="294" width="430" height="26" as="geometry" />
        </mxCell>
        <mxCell id="q_oxvsGT3ibb42apNzP6-27" value="- AddHelpCommand(menu: Menu): void" style="text;strokeColor=none;fillColor=none;align=left;verticalAlign=top;spacingLeft=4;spacingRight=4;overflow=hidden;rotatable=0;points=[[0,0.5],[1,0.5]];portConstraint=eastwest;whiteSpace=wrap;html=1;labelBackgroundColor=none;" vertex="1" parent="q_oxvsGT3ibb42apNzP6-1">
          <mxGeometry y="320" width="430" height="26" as="geometry" />
        </mxCell>
        <mxCell id="q_oxvsGT3ibb42apNzP6-28" value="- AddExitCommand(menu: Menu): void" style="text;strokeColor=none;fillColor=none;align=left;verticalAlign=top;spacingLeft=4;spacingRight=4;overflow=hidden;rotatable=0;points=[[0,0.5],[1,0.5]];portConstraint=eastwest;whiteSpace=wrap;html=1;labelBackgroundColor=none;" vertex="1" parent="q_oxvsGT3ibb42apNzP6-1">
          <mxGeometry y="346" width="430" height="26" as="geometry" />
        </mxCell>
        <mxCell id="q_oxvsGT3ibb42apNzP6-7" value="Use" style="endArrow=open;endSize=12;dashed=1;html=1;rounded=0;" edge="1" parent="WIyWlLk6GJQsqaUBKTNV-1" source="q_oxvsGT3ibb42apNzP6-1" target="tXO7d4i_3rFBIxNAxgOe-97">
          <mxGeometry width="160" relative="1" as="geometry">
            <mxPoint x="-120" y="250" as="sourcePoint" />
            <mxPoint x="40" y="250" as="targetPoint" />
          </mxGeometry>
        </mxCell>
        <mxCell id="q_oxvsGT3ibb42apNzP6-29" value="Use" style="endArrow=open;endSize=12;dashed=1;html=1;rounded=0;" edge="1" parent="WIyWlLk6GJQsqaUBKTNV-1" source="q_oxvsGT3ibb42apNzP6-1" target="tXO7d4i_3rFBIxNAxgOe-0">
          <mxGeometry width="160" relative="1" as="geometry">
            <mxPoint x="-150" y="320" as="sourcePoint" />
            <mxPoint x="120" y="299" as="targetPoint" />
          </mxGeometry>
        </mxCell>
        <mxCell id="q_oxvsGT3ibb42apNzP6-30" value="Item" style="swimlane;fontStyle=1;align=center;verticalAlign=top;childLayout=stackLayout;horizontal=1;startSize=26;horizontalStack=0;resizeParent=1;resizeParentMax=0;resizeLast=0;collapsible=1;marginBottom=0;whiteSpace=wrap;html=1;" vertex="1" parent="WIyWlLk6GJQsqaUBKTNV-1">
          <mxGeometry x="470" y="262" width="240" height="112" as="geometry" />
        </mxCell>
        <mxCell id="q_oxvsGT3ibb42apNzP6-31" value="+ shortcut: string" style="text;strokeColor=none;fillColor=none;align=left;verticalAlign=top;spacingLeft=4;spacingRight=4;overflow=hidden;rotatable=0;points=[[0,0.5],[1,0.5]];portConstraint=eastwest;whiteSpace=wrap;html=1;" vertex="1" parent="q_oxvsGT3ibb42apNzP6-30">
          <mxGeometry y="26" width="240" height="26" as="geometry" />
        </mxCell>
        <mxCell id="q_oxvsGT3ibb42apNzP6-34" value="+ description: string" style="text;strokeColor=none;fillColor=none;align=left;verticalAlign=top;spacingLeft=4;spacingRight=4;overflow=hidden;rotatable=0;points=[[0,0.5],[1,0.5]];portConstraint=eastwest;whiteSpace=wrap;html=1;" vertex="1" parent="q_oxvsGT3ibb42apNzP6-30">
          <mxGeometry y="52" width="240" height="26" as="geometry" />
        </mxCell>
        <mxCell id="q_oxvsGT3ibb42apNzP6-35" value="+ command: function&amp;lt;void(in: istream)&amp;gt;" style="text;strokeColor=none;fillColor=none;align=left;verticalAlign=top;spacingLeft=4;spacingRight=4;overflow=hidden;rotatable=0;points=[[0,0.5],[1,0.5]];portConstraint=eastwest;whiteSpace=wrap;html=1;" vertex="1" parent="q_oxvsGT3ibb42apNzP6-30">
          <mxGeometry y="78" width="240" height="26" as="geometry" />
        </mxCell>
        <mxCell id="q_oxvsGT3ibb42apNzP6-32" value="" style="line;strokeWidth=1;fillColor=none;align=left;verticalAlign=middle;spacingTop=-1;spacingLeft=3;spacingRight=3;rotatable=0;labelPosition=right;points=[];portConstraint=eastwest;strokeColor=inherit;" vertex="1" parent="q_oxvsGT3ibb42apNzP6-30">
          <mxGeometry y="104" width="240" height="8" as="geometry" />
        </mxCell>
        <mxCell id="q_oxvsGT3ibb42apNzP6-36" value="" style="endArrow=diamondThin;endFill=1;endSize=24;html=1;rounded=0;" edge="1" parent="WIyWlLk6GJQsqaUBKTNV-1" source="q_oxvsGT3ibb42apNzP6-30" target="tXO7d4i_3rFBIxNAxgOe-97">
          <mxGeometry width="160" relative="1" as="geometry">
            <mxPoint x="210" y="280" as="sourcePoint" />
            <mxPoint x="370" y="280" as="targetPoint" />
          </mxGeometry>
        </mxCell>
        <mxCell id="q_oxvsGT3ibb42apNzP6-42" value="Use" style="endArrow=open;endSize=12;dashed=1;html=1;rounded=0;" edge="1" parent="WIyWlLk6GJQsqaUBKTNV-1" source="mTHOiytMiAY_9Srzv-4_-1" target="tXO7d4i_3rFBIxNAxgOe-97">
          <mxGeometry width="160" relative="1" as="geometry">
            <mxPoint x="100" y="380" as="sourcePoint" />
            <mxPoint x="260" y="380" as="targetPoint" />
          </mxGeometry>
        </mxCell>
        <mxCell id="q_oxvsGT3ibb42apNzP6-43" value="Use" style="endArrow=open;endSize=12;dashed=1;html=1;rounded=0;" edge="1" parent="WIyWlLk6GJQsqaUBKTNV-1" source="mTHOiytMiAY_9Srzv-4_-1" target="q_oxvsGT3ibb42apNzP6-1">
          <mxGeometry width="160" relative="1" as="geometry">
            <mxPoint x="194" y="114" as="sourcePoint" />
            <mxPoint x="230" y="250" as="targetPoint" />
          </mxGeometry>
        </mxCell>
        <mxCell id="q_oxvsGT3ibb42apNzP6-44" value="Use" style="endArrow=open;endSize=12;dashed=1;html=1;rounded=0;" edge="1" parent="WIyWlLk6GJQsqaUBKTNV-1" source="mTHOiytMiAY_9Srzv-4_-1" target="tXO7d4i_3rFBIxNAxgOe-56">
          <mxGeometry width="160" relative="1" as="geometry">
            <mxPoint x="151" y="114" as="sourcePoint" />
            <mxPoint x="-150" y="243" as="targetPoint" />
            <Array as="points">
              <mxPoint x="40" y="200" />
              <mxPoint x="40" y="560" />
              <mxPoint x="-400" y="560" />
              <mxPoint x="-400" y="1421" />
            </Array>
          </mxGeometry>
        </mxCell>
        <mxCell id="q_oxvsGT3ibb42apNzP6-45" value="Use" style="endArrow=open;endSize=12;dashed=1;html=1;rounded=0;" edge="1" parent="WIyWlLk6GJQsqaUBKTNV-1" source="tXO7d4i_3rFBIxNAxgOe-56" target="t_CTMTlM3WWsd4xlWa1g-42">
          <mxGeometry width="160" relative="1" as="geometry">
            <mxPoint x="910" y="1610" as="sourcePoint" />
            <mxPoint x="1070" y="1610" as="targetPoint" />
            <Array as="points">
              <mxPoint x="-130" y="1750" />
            </Array>
          </mxGeometry>
        </mxCell>
        <mxCell id="q_oxvsGT3ibb42apNzP6-48" value="FileUtils" style="swimlane;fontStyle=1;align=center;verticalAlign=top;childLayout=stackLayout;horizontal=1;startSize=26;horizontalStack=0;resizeParent=1;resizeParentMax=0;resizeLast=0;collapsible=1;marginBottom=0;whiteSpace=wrap;html=1;" vertex="1" parent="WIyWlLk6GJQsqaUBKTNV-1">
          <mxGeometry x="-1000" y="585" width="220" height="106" as="geometry" />
        </mxCell>
        <mxCell id="q_oxvsGT3ibb42apNzP6-50" value="" style="line;strokeWidth=1;fillColor=none;align=left;verticalAlign=middle;spacingTop=-1;spacingLeft=3;spacingRight=3;rotatable=0;labelPosition=right;points=[];portConstraint=eastwest;strokeColor=inherit;" vertex="1" parent="q_oxvsGT3ibb42apNzP6-48">
          <mxGeometry y="26" width="220" height="8" as="geometry" />
        </mxCell>
        <mxCell id="q_oxvsGT3ibb42apNzP6-51" value="+ GetParentPath(path: string): string" style="text;strokeColor=none;fillColor=none;align=left;verticalAlign=top;spacingLeft=4;spacingRight=4;overflow=hidden;rotatable=0;points=[[0,0.5],[1,0.5]];portConstraint=eastwest;whiteSpace=wrap;html=1;" vertex="1" parent="q_oxvsGT3ibb42apNzP6-48">
          <mxGeometry y="34" width="220" height="36" as="geometry" />
        </mxCell>
        <mxCell id="q_oxvsGT3ibb42apNzP6-53" value="+ CopyFiles(fromPath: string, toPath: string): void" style="text;strokeColor=none;fillColor=none;align=left;verticalAlign=top;spacingLeft=4;spacingRight=4;overflow=hidden;rotatable=0;points=[[0,0.5],[1,0.5]];portConstraint=eastwest;whiteSpace=wrap;html=1;" vertex="1" parent="q_oxvsGT3ibb42apNzP6-48">
          <mxGeometry y="70" width="220" height="36" as="geometry" />
        </mxCell>
        <mxCell id="q_oxvsGT3ibb42apNzP6-54" value="Use" style="endArrow=open;endSize=12;dashed=1;html=1;rounded=0;" edge="1" parent="WIyWlLk6GJQsqaUBKTNV-1" source="q_oxvsGT3ibb42apNzP6-1" target="q_oxvsGT3ibb42apNzP6-48">
          <mxGeometry width="160" relative="1" as="geometry">
            <mxPoint x="-640" y="650" as="sourcePoint" />
            <mxPoint x="-480" y="650" as="targetPoint" />
          </mxGeometry>
        </mxCell>
        <mxCell id="q_oxvsGT3ibb42apNzP6-55" value="Classname" style="swimlane;fontStyle=1;align=center;verticalAlign=top;childLayout=stackLayout;horizontal=1;startSize=26;horizontalStack=0;resizeParent=1;resizeParentMax=0;resizeLast=0;collapsible=1;marginBottom=0;whiteSpace=wrap;html=1;" vertex="1" parent="WIyWlLk6GJQsqaUBKTNV-1">
          <mxGeometry x="-1010" y="850" width="300" height="94" as="geometry" />
        </mxCell>
        <mxCell id="q_oxvsGT3ibb42apNzP6-57" value="" style="line;strokeWidth=1;fillColor=none;align=left;verticalAlign=middle;spacingTop=-1;spacingLeft=3;spacingRight=3;rotatable=0;labelPosition=right;points=[];portConstraint=eastwest;strokeColor=inherit;" vertex="1" parent="q_oxvsGT3ibb42apNzP6-55">
          <mxGeometry y="26" width="300" height="8" as="geometry" />
        </mxCell>
        <mxCell id="q_oxvsGT3ibb42apNzP6-56" value="+ WriteHtmlToFile(title: string, items: vector&amp;lt;ConstDocumentItem&amp;gt;, outFilePath: string): void" style="text;strokeColor=none;fillColor=none;align=left;verticalAlign=top;spacingLeft=4;spacingRight=4;overflow=hidden;rotatable=0;points=[[0,0.5],[1,0.5]];portConstraint=eastwest;whiteSpace=wrap;html=1;" vertex="1" parent="q_oxvsGT3ibb42apNzP6-55">
          <mxGeometry y="34" width="300" height="34" as="geometry" />
        </mxCell>
        <mxCell id="q_oxvsGT3ibb42apNzP6-58" value="- HtmlEncodeStr(str: string): string" style="text;strokeColor=none;fillColor=none;align=left;verticalAlign=top;spacingLeft=4;spacingRight=4;overflow=hidden;rotatable=0;points=[[0,0.5],[1,0.5]];portConstraint=eastwest;whiteSpace=wrap;html=1;" vertex="1" parent="q_oxvsGT3ibb42apNzP6-55">
          <mxGeometry y="68" width="300" height="26" as="geometry" />
        </mxCell>
        <mxCell id="q_oxvsGT3ibb42apNzP6-60" value="Use" style="endArrow=open;endSize=12;dashed=1;html=1;rounded=0;" edge="1" parent="WIyWlLk6GJQsqaUBKTNV-1" source="q_oxvsGT3ibb42apNzP6-55" target="q_oxvsGT3ibb42apNzP6-48">
          <mxGeometry width="160" relative="1" as="geometry">
            <mxPoint x="-700" y="790" as="sourcePoint" />
            <mxPoint x="-540" y="790" as="targetPoint" />
          </mxGeometry>
        </mxCell>
        <mxCell id="q_oxvsGT3ibb42apNzP6-61" value="Use" style="endArrow=open;endSize=12;dashed=1;html=1;rounded=0;" edge="1" parent="WIyWlLk6GJQsqaUBKTNV-1" source="q_oxvsGT3ibb42apNzP6-55" target="tXO7d4i_3rFBIxNAxgOe-41">
          <mxGeometry width="160" relative="1" as="geometry">
            <mxPoint x="-810" y="860" as="sourcePoint" />
            <mxPoint x="-874" y="701" as="targetPoint" />
            <Array as="points">
              <mxPoint x="-390" y="610" />
              <mxPoint x="110" y="610" />
            </Array>
          </mxGeometry>
        </mxCell>
      </root>
    </mxGraphModel>
  </diagram>
</mxfile>
